<svg width="111" height="86" viewBox="0 0 111 86" fill="none" xmlns="http://www.w3.org/2000/svg">
<path fill-rule="evenodd" clip-rule="evenodd" d="M29.6329 0.638672C29.2739 0.638672 28.9829 0.929687 28.9829 1.28867V34.9712H0.793555C0.43457 34.9712 0.143555 35.2622 0.143555 35.6212V39.8784C0.143555 40.2374 0.43457 40.5284 0.793555 40.5284H110.108C110.467 40.5284 110.758 40.2374 110.758 39.8784V35.6212C110.758 35.2622 110.467 34.9712 110.108 34.9712H56.2382V1.28867C56.2382 0.929776 55.9474 0.638816 55.5885 0.638672L29.6329 0.638672ZM30.2829 34.8339V1.93867H54.9382V34.8339H30.2829ZM56.2388 34.8339V1.93867H80.8942V34.8339H56.2388ZM0.143555 80.2534C0.143555 79.8945 0.43457 79.6034 0.793555 79.6034H110.108C110.467 79.6034 110.758 79.8945 110.758 80.2534V84.5107C110.758 84.8697 110.467 85.1607 110.108 85.1607H0.793555C0.43457 85.1607 0.143555 84.8697 0.143555 84.5107V80.2534ZM1.44355 80.9034V83.8607H109.458V80.9034H1.44355ZM1.44355 39.2284V36.2712H109.458V39.2284H1.44355ZM6.56168 41.8449C6.91667 41.8449 7.20443 42.1327 7.20443 42.4877V77.2322C7.20443 77.5872 6.91667 77.8749 6.56168 77.8749C6.2067 77.8749 5.91893 77.5872 5.91893 77.2322V42.4877C5.91893 42.1327 6.2067 41.8449 6.56168 41.8449ZM12.9726 42.4877C12.9726 42.1327 12.6848 41.8449 12.3298 41.8449C11.9748 41.8449 11.6871 42.1327 11.6871 42.4877V77.2322C11.6871 77.5872 11.9748 77.8749 12.3298 77.8749C12.6848 77.8749 12.9726 77.5872 12.9726 77.2322V42.4877ZM18.0979 41.8449C18.4529 41.8449 18.7407 42.1327 18.7407 42.4877V77.2322C18.7407 77.5872 18.4529 77.8749 18.0979 77.8749C17.743 77.8749 17.4552 77.5872 17.4552 77.2322V42.4877C17.4552 42.1327 17.743 41.8449 18.0979 41.8449ZM24.5088 42.4877C24.5088 42.1327 24.2211 41.8449 23.8661 41.8449C23.5111 41.8449 23.2233 42.1327 23.2233 42.4877V77.2322C23.2233 77.5872 23.5111 77.8749 23.8661 77.8749C24.2211 77.8749 24.5088 77.5872 24.5088 77.2322V42.4877ZM29.6329 41.8449C29.9878 41.8449 30.2756 42.1327 30.2756 42.4877V77.2322C30.2756 77.5872 29.9878 77.8749 29.6329 77.8749C29.2779 77.8749 28.9901 77.5872 28.9901 77.2322V42.4877C28.9901 42.1327 29.2779 41.8449 29.6329 41.8449ZM36.0437 42.4877C36.0437 42.1327 35.756 41.8449 35.401 41.8449C35.046 41.8449 34.7582 42.1327 34.7582 42.4877V77.2322C34.7582 77.5872 35.046 77.8749 35.401 77.8749C35.756 77.8749 36.0437 77.5872 36.0437 77.2322V42.4877ZM41.1691 41.8449C41.5241 41.8449 41.8119 42.1327 41.8119 42.4877V77.2322C41.8119 77.5872 41.5241 77.8749 41.1691 77.8749C40.8141 77.8749 40.5264 77.5872 40.5264 77.2322V42.4877C40.5264 42.1327 40.8141 41.8449 41.1691 41.8449ZM47.58 42.4877C47.58 42.1327 47.2922 41.8449 46.9372 41.8449C46.5823 41.8449 46.2945 42.1327 46.2945 42.4877V77.2322C46.2945 77.5872 46.5823 77.8749 46.9372 77.8749C47.2922 77.8749 47.58 77.5872 47.58 77.2322V42.4877ZM52.7054 41.8449C53.0604 41.8449 53.3481 42.1327 53.3481 42.4877V77.2322C53.3481 77.5872 53.0604 77.8749 52.7054 77.8749C52.3504 77.8749 52.0626 77.5872 52.0626 77.2322V42.4877C52.0626 42.1327 52.3504 41.8449 52.7054 41.8449ZM59.1149 42.4877C59.1149 42.1327 58.8271 41.8449 58.4722 41.8449C58.1172 41.8449 57.8294 42.1327 57.8294 42.4877V77.2322C57.8294 77.5872 58.1172 77.8749 58.4722 77.8749C58.8271 77.8749 59.1149 77.5872 59.1149 77.2322V42.4877ZM64.1035 41.8449C64.4585 41.8449 64.7463 42.1327 64.7463 42.4877V77.2322C64.7463 77.5872 64.4585 77.8749 64.1035 77.8749C63.7485 77.8749 63.4608 77.5872 63.4608 77.2322V42.4877C63.4608 42.1327 63.7485 41.8449 64.1035 41.8449ZM70.5144 42.4877C70.5144 42.1327 70.2266 41.8449 69.8716 41.8449C69.5167 41.8449 69.2289 42.1327 69.2289 42.4877V77.2322C69.2289 77.5872 69.5167 77.8749 69.8716 77.8749C70.2266 77.8749 70.5144 77.5872 70.5144 77.2322V42.4877ZM75.6384 41.8449C75.9934 41.8449 76.2812 42.1327 76.2812 42.4877V77.2322C76.2812 77.5872 75.9934 77.8749 75.6384 77.8749C75.2834 77.8749 74.9957 77.5872 74.9957 77.2322V42.4877C74.9957 42.1327 75.2834 41.8449 75.6384 41.8449ZM82.0493 42.4877C82.0493 42.1327 81.7615 41.8449 81.4066 41.8449C81.0516 41.8449 80.7638 42.1327 80.7638 42.4877V77.2322C80.7638 77.5872 81.0516 77.8749 81.4066 77.8749C81.7615 77.8749 82.0493 77.5872 82.0493 77.2322V42.4877ZM87.1747 41.8449C87.5297 41.8449 87.8174 42.1327 87.8174 42.4877V77.2322C87.8174 77.5872 87.5297 77.8749 87.1747 77.8749C86.8197 77.8749 86.5319 77.5872 86.5319 77.2322V42.4877C86.5319 42.1327 86.8197 41.8449 87.1747 41.8449ZM93.5856 42.4877C93.5856 42.1327 93.2978 41.8449 92.9428 41.8449C92.5878 41.8449 92.3001 42.1327 92.3001 42.4877V77.2322C92.3001 77.5872 92.5878 77.8749 92.9428 77.8749C93.2978 77.8749 93.5856 77.5872 93.5856 77.2322V42.4877ZM98.7109 41.8449C99.0659 41.8449 99.3537 42.1327 99.3537 42.4877V77.2322C99.3537 77.5872 99.0659 77.8749 98.7109 77.8749C98.356 77.8749 98.0682 77.5872 98.0682 77.2322V42.4877C98.0682 42.1327 98.356 41.8449 98.7109 41.8449ZM105.12 42.4877C105.12 42.1327 104.833 41.8449 104.478 41.8449C104.123 41.8449 103.835 42.1327 103.835 42.4877V77.2322C103.835 77.5872 104.123 77.8749 104.478 77.8749C104.833 77.8749 105.12 77.5872 105.12 77.2322V42.4877Z" fill="#006FB9"/>
</svg>
