<svg width="98" height="85" viewBox="0 0 98 85" fill="none" xmlns="http://www.w3.org/2000/svg">
<path fill-rule="evenodd" clip-rule="evenodd" d="M21.8232 0.711914C16.6731 0.711914 12.4302 4.92539 12.4302 10.0642V39.5859H1.29639C0.643382 39.5859 0.114014 40.1153 0.114014 40.7683V44.8533C0.114014 45.3852 0.469231 45.8516 0.981964 45.9931L0.982639 45.9933L0.988246 45.9949L1.02735 46.0064C1.06409 46.0174 1.12154 46.035 1.19672 46.0596C1.34729 46.1088 1.56767 46.1852 1.83436 46.2906C2.37144 46.5028 3.07761 46.8252 3.77459 47.2679C5.21547 48.1831 6.33823 49.4212 6.33823 51.0466V59.2165C6.33823 67.6009 12.2814 74.6893 20.2971 76.3642L18.5859 81.366C18.5437 81.4892 18.5222 81.6185 18.5222 81.7488V83.7254C18.5222 84.3784 19.0516 84.9077 19.7046 84.9077C20.3576 84.9077 20.887 84.3784 20.887 83.7254V81.9454L22.6833 76.6949C23.0988 76.724 23.5185 76.7388 23.942 76.7388H48.574H73.206C73.6292 76.7388 74.0491 76.7238 74.4652 76.6944L76.2617 81.9454V83.7254C76.2617 84.3784 76.7911 84.9077 77.4441 84.9077C78.0971 84.9077 78.6265 84.3784 78.6265 83.7254V81.7488C78.6265 81.6185 78.605 81.4892 78.5628 81.366L76.8507 76.3616C84.7777 74.6968 90.8097 67.7116 90.8097 59.2165V51.0466C90.8097 49.4212 91.9325 48.1831 93.3734 47.2679C94.0704 46.8252 94.7765 46.5028 95.3136 46.2906C95.5803 46.1852 95.8007 46.1088 95.9513 46.0596C96.0264 46.035 96.0839 46.0174 96.1206 46.0064L96.1597 45.9949L96.1653 45.9933L91.4304 45.7357L91.431 45.7353L96.1669 45.9928C96.6791 45.8511 97.034 45.3849 97.034 44.8533V40.7683C97.034 40.1153 96.5046 39.5859 95.8516 39.5859H76.6396V38.6599C76.6396 36.8154 75.1777 35.3691 73.3383 35.3691H56.917C55.0777 35.3691 53.6157 36.8154 53.6157 38.6599V39.5859H14.7949V10.0642C14.7949 6.24249 17.9681 3.07667 21.8232 3.07667H23.9421C27.7973 3.07667 30.9704 6.24249 30.9704 10.0642V12.9678H28.0474C27.3944 12.9678 26.865 13.4971 26.865 14.1502C26.865 14.8032 27.3944 15.3325 28.0474 15.3325H32.1527H36.258C36.911 15.3325 37.4404 14.8032 37.4404 14.1502C37.4404 13.4971 36.911 12.9678 36.258 12.9678H33.3352V10.0642C33.3352 4.92539 29.0922 0.711914 23.9421 0.711914H21.8232ZM91.431 45.7353L76.6396 44.9307V41.9507H94.6692V44.0046C94.5976 44.0316 94.5226 44.0604 94.4445 44.0913C93.8145 44.3403 92.9646 44.7261 92.1056 45.2718C91.8845 45.4122 91.6579 45.5665 91.431 45.7353ZM21.852 41.9507L53.6157 43.6786V57.1081C53.6157 57.7611 54.1451 58.2905 54.7981 58.2905H75.3248H75.4572C76.1102 58.2905 76.6396 57.7611 76.6396 57.1081V44.9311L91.4304 45.7357C89.9425 46.8428 88.445 48.5697 88.445 51.0466V59.2165C88.445 67.6441 81.57 74.374 73.206 74.374H48.574H23.942C15.4579 74.374 8.70299 67.5248 8.70299 59.2165V51.0466C8.70299 48.1918 6.71365 46.3332 5.04241 45.2718C4.18334 44.7261 3.33346 44.3403 2.70349 44.0913C2.62536 44.0604 2.55033 44.0316 2.47877 44.0046V41.9507H21.8499L14.4982 41.5508L14.4982 41.5507L21.852 41.9507ZM21.852 41.9507H53.6157V43.6784L21.852 41.9507ZM0.114014 40.7683L12.647 41.45L12.6471 41.4501L0.114014 40.7683ZM55.9805 43.807V40.7841L55.9806 40.7683L55.9805 40.7525V38.6599C55.9805 38.1325 56.3726 37.7339 56.917 37.7339H73.3383C73.8827 37.7339 74.2748 38.1325 74.2748 38.6599V40.2243C74.1903 40.3871 74.1425 40.5721 74.1425 40.7683C74.1425 40.9645 74.1903 41.1495 74.2748 41.3124V44.8021L55.9805 43.807ZM55.9805 43.8073L74.2748 44.8024V55.9257H55.9805V43.8073ZM29.2297 20.2107C29.2297 19.5577 28.7004 19.0283 28.0474 19.0283C27.3944 19.0283 26.865 19.5577 26.865 20.2107V24.4274C26.865 25.0804 27.3944 25.6098 28.0474 25.6098C28.7004 25.6098 29.2297 25.0804 29.2297 24.4274V20.2107ZM36.2581 19.0283C36.9111 19.0283 37.4404 19.5577 37.4404 20.2107V24.4274C37.4404 25.0804 36.9111 25.6098 36.2581 25.6098C35.6051 25.6098 35.0757 25.0804 35.0757 24.4274V20.2107C35.0757 19.5577 35.6051 19.0283 36.2581 19.0283ZM33.335 28.5125C33.335 27.8594 32.8056 27.3301 32.1526 27.3301C31.4996 27.3301 30.9702 27.8594 30.9702 28.5125V32.5974C30.9702 33.2504 31.4996 33.7798 32.1526 33.7798C32.8056 33.7798 33.335 33.2504 33.335 32.5974V28.5125ZM23.9419 27.3301C24.5949 27.3301 25.1243 27.8594 25.1243 28.5125V32.5974C25.1243 33.2504 24.5949 33.7798 23.9419 33.7798C23.2889 33.7798 22.7595 33.2504 22.7595 32.5974V28.5125C22.7595 27.8594 23.2889 27.3301 23.9419 27.3301ZM41.5457 28.5125C41.5457 27.8594 41.0163 27.3301 40.3633 27.3301C39.7103 27.3301 39.1809 27.8594 39.1809 28.5125V32.5974C39.1809 33.2504 39.7103 33.7798 40.3633 33.7798C41.0163 33.7798 41.5457 33.2504 41.5457 32.5974V28.5125Z" fill="#006FB9"/>
</svg>
