<svg width="113" height="54" viewBox="0 0 113 54" fill="none" xmlns="http://www.w3.org/2000/svg">
<path fill-rule="evenodd" clip-rule="evenodd" d="M4.91816 1.95024C4.55717 2.18491 4.42183 2.45253 4.42183 2.69902V20.699C4.42183 21.058 4.13081 21.349 3.77183 21.349C3.41284 21.349 3.12183 21.058 3.12183 20.699V2.69902C3.12183 1.89551 3.58995 1.26313 4.20961 0.860306C4.82538 0.46 5.63355 0.249023 6.48745 0.249023H77.6971C78.5509 0.249023 79.3591 0.46 79.9749 0.860306C80.5945 1.26313 81.0627 1.89551 81.0627 2.69902V20.549C81.0627 20.908 80.7717 21.199 80.4127 21.199C80.0537 21.199 79.7627 20.908 79.7627 20.549V2.69902C79.7627 2.45253 79.6273 2.18491 79.2663 1.95024C78.9015 1.71305 78.3518 1.54902 77.6971 1.54902H6.48745C5.83267 1.54902 5.28302 1.71305 4.91816 1.95024ZM93.9908 0.249023C93.7114 0.249023 93.4633 0.427531 93.3745 0.692406L89.7537 11.4924C89.7314 11.559 89.72 11.6288 89.72 11.699V13.499C89.72 13.858 90.011 14.149 90.37 14.149H96.9617V21.8496H90.37C90.011 21.8496 89.72 22.1406 89.72 22.4996V35.0992V35.0996V47.6992C89.72 48.0582 90.011 48.3492 90.37 48.3492H91.5303V52.9494C91.5303 53.3084 91.8213 53.5994 92.1803 53.5994C92.5393 53.5994 92.8303 53.3084 92.8303 52.9494V48.3492H109.635V52.9494C109.635 53.3084 109.926 53.5994 110.285 53.5994C110.644 53.5994 110.935 53.3084 110.935 52.9494V48.3492H111.944C112.303 48.3492 112.594 48.0582 112.594 47.6992V35.0996V35.0992V22.4996C112.594 22.1406 112.303 21.8496 111.944 21.8496H98.2617V14.149H104.853C105.212 14.149 105.503 13.858 105.503 13.499V11.699C105.503 11.6288 105.492 11.559 105.47 11.4924L101.849 0.692406C101.76 0.427531 101.512 0.249023 101.232 0.249023H93.9908ZM110.7 47.0492H111.294V35.7496H91.02V47.0492H91.7652C91.8777 46.9557 92.0224 46.8994 92.1803 46.8994C92.3381 46.8994 92.4828 46.9557 92.5954 47.0492H109.869C109.982 46.9557 110.127 46.8994 110.285 46.8994C110.442 46.8994 110.587 46.9557 110.7 47.0492ZM111.294 34.4492V23.1496H97.6117H91.02V34.4492H111.294ZM91.02 11.8051L94.4584 1.54902H100.765L104.203 11.8051V12.849H91.02V11.8051ZM77.6971 46.8994H82.4783V30.8994C82.4783 27.6619 79.7555 24.9494 76.4902 24.9494H7.54356C4.27817 24.9494 1.55537 27.6619 1.55537 30.8994V46.8994H6.4874H77.6971ZM5.8374 48.1994V52.9494C5.8374 53.3084 6.12842 53.5994 6.4874 53.5994C6.84639 53.5994 7.1374 53.3084 7.1374 52.9494V48.1994H77.0471V52.9494C77.0471 53.3084 77.3381 53.5994 77.6971 53.5994C78.0561 53.5994 78.3471 53.3084 78.3471 52.9494V48.1994H83.1283C83.4873 48.1994 83.7783 47.9084 83.7783 47.5494V30.8994C83.7783 26.9369 80.4664 23.6494 76.4902 23.6494H7.54356C3.56728 23.6494 0.255371 26.9369 0.255371 30.8994V47.5494C0.255371 47.9084 0.546386 48.1994 0.905371 48.1994H5.8374ZM16.58 15.1086C15.7122 15.6893 15.2844 16.4117 15.2844 17.0996V20.6996C15.2844 21.0586 14.9934 21.3496 14.6344 21.3496C14.2754 21.3496 13.9844 21.0586 13.9844 20.6996V17.0996C13.9844 15.8375 14.7635 14.76 15.857 14.0282C16.9575 13.2917 18.4446 12.8496 20.0656 12.8496H31.079C32.6999 12.8496 34.1871 13.2917 35.2876 14.0282C36.3811 14.76 37.1602 15.8375 37.1602 17.0996V20.6996C37.1602 21.0586 36.8692 21.3496 36.5102 21.3496C36.1512 21.3496 35.8602 21.0586 35.8602 20.6996V17.0996C35.8602 16.4117 35.4323 15.6893 34.5646 15.1086C33.7038 14.5325 32.4754 14.1496 31.079 14.1496H20.0656C18.6692 14.1496 17.4408 14.5325 16.58 15.1086ZM48.1735 17.0996C48.1735 16.4117 48.6014 15.6893 49.4692 15.1086C50.3299 14.5325 51.5584 14.1496 52.9548 14.1496H63.9681C65.3645 14.1496 66.593 14.5325 67.4538 15.1086C68.3215 15.6893 68.7494 16.4117 68.7494 17.0996V20.6996C68.7494 21.0586 69.0404 21.3496 69.3994 21.3496C69.7584 21.3496 70.0494 21.0586 70.0494 20.6996V17.0996C70.0494 15.8375 69.2703 14.76 68.1768 14.0282C67.0763 13.2917 65.5891 12.8496 63.9681 12.8496H52.9548C51.3338 12.8496 49.8466 13.2917 48.7461 14.0282C47.6526 14.76 46.8735 15.8375 46.8735 17.0996V20.6996C46.8735 21.0586 47.1646 21.3496 47.5235 21.3496C47.8825 21.3496 48.1735 21.0586 48.1735 20.6996V17.0996Z" fill="#006FB9"/>
</svg>
