<svg width="87" height="81" viewBox="0 0 87 81" fill="none" xmlns="http://www.w3.org/2000/svg">
<path fill-rule="evenodd" clip-rule="evenodd" d="M0.805762 0.155273C1.16475 0.155273 1.45576 0.446288 1.45576 0.805273V14.3945H15.0372H27.2547H39.4723H51.6898H63.7733H77.3547V0.805273C77.3547 0.446288 77.6458 0.155273 78.0047 0.155273C78.3637 0.155273 78.6547 0.446288 78.6547 0.805273V15.0335L78.6548 15.0445L78.6547 15.0556V25.253C78.6547 25.612 78.3637 25.903 78.0047 25.903C77.6458 25.903 77.3547 25.612 77.3547 25.253V15.6945H64.4233V25.2535C64.4233 25.6125 64.1323 25.9035 63.7733 25.9035C63.4143 25.9035 63.1233 25.6125 63.1233 25.2535V15.6945H52.3398V25.2535C52.3398 25.6125 52.0488 25.9035 51.6898 25.9035C51.3308 25.9035 51.0398 25.6125 51.0398 25.2535V15.6945H40.1223V53.0811H45.5141C45.8731 53.0811 46.1641 53.3721 46.1641 53.7311C46.1641 54.09 45.8731 54.3811 45.5141 54.3811H39.4794L39.4723 54.3811L39.4652 54.3811H27.2619L27.2547 54.3811L27.2476 54.3811H15.0443L15.0372 54.3811L15.0301 54.3811H1.45576V65.8202C1.45576 66.1792 1.16475 66.4702 0.805762 66.4702C0.446777 66.4702 0.155762 66.1792 0.155762 65.8202V53.7311V15.0445V0.805273C0.155762 0.446288 0.446777 0.155273 0.805762 0.155273ZM38.8223 15.6945V53.0811H27.9047V15.6945H38.8223ZM26.6047 15.6945V53.0811H15.6872V15.6945H26.6047ZM14.3872 15.6945V53.0811H1.45576V15.6945H14.3872ZM57.5974 28.6328C53.8816 28.6328 50.9058 31.6107 50.9058 35.3276C50.9058 38.8715 53.6112 41.7437 57.0838 42.0033C57.0068 42.4493 56.9474 42.916 56.9474 43.3873C56.9474 44.6674 57.1684 45.8956 57.5744 47.0357H55.5835C51.8677 47.0357 48.8918 50.0136 48.8918 53.7305C48.8918 55.2302 49.4884 57.2051 51.2024 58.659C52.7062 59.9346 54.9934 60.7453 58.3066 60.5647C58.1668 60.7849 58.0275 61.0337 57.8969 61.3157C57.4899 62.1954 57.1731 63.3769 57.0984 65.0485C56.9028 65.0356 56.7194 65.0356 56.556 65.0357L56.5233 65.0357C52.2705 65.0357 48.7576 68.5509 48.7576 72.8051C48.7576 77.0593 52.2705 80.5745 56.5233 80.5745C60.475 80.5745 63.6562 77.6614 64.2086 73.8577C65.281 74.218 66.4354 74.3954 67.6668 74.3954C68.7937 74.3954 70.0157 74.2174 71.1244 73.8534C71.675 77.6592 74.8571 80.5745 78.8103 80.5745C83.0632 80.5745 86.5761 77.0593 86.5761 72.8051C86.5761 68.5509 83.0632 65.0357 78.8103 65.0357L78.7777 65.0357C78.6286 65.0356 78.4628 65.0356 78.2863 65.0454C78.3229 63.3403 78.0963 62.1319 77.7357 61.2298C77.6191 60.9382 77.49 60.6828 77.3554 60.4571C80.6852 60.68 82.9636 59.9002 84.4528 58.6231C86.1589 57.16 86.7103 55.1449 86.7103 53.5961C86.7103 49.8793 83.7345 46.9014 80.0187 46.9014H78.0747C78.4508 45.7993 78.6548 44.6173 78.6548 43.3873C78.6548 42.916 78.5954 42.4493 78.5185 42.0033C81.9911 41.7437 84.6965 38.8715 84.6965 35.3276C84.6965 31.6107 81.7206 28.6328 78.0048 28.6328C75.0036 28.6328 72.3805 30.635 71.5126 33.3856C70.3488 32.9661 69.1324 32.6627 67.8011 32.6627C66.4981 32.6627 65.2093 32.953 64.0869 33.3692C63.2333 30.6335 60.7231 28.6328 57.5974 28.6328ZM77.602 48.0615C75.857 51.7203 72.1261 54.2463 67.8011 54.2463C63.5437 54.2463 59.862 51.7986 58.0836 48.2323C57.9822 48.2977 57.8613 48.3357 57.7316 48.3357H55.5835C52.5863 48.3357 50.1918 50.7309 50.1918 53.7305C50.1918 54.9174 50.6693 56.5021 52.0433 57.6676C53.4069 58.8243 55.7542 59.6519 59.6596 59.131C59.9251 59.0955 60.1851 59.2266 60.3146 59.4611C60.444 59.6956 60.4164 59.9854 60.245 60.1912C60.1848 60.2635 60.1228 60.3355 60.0595 60.4089C59.7406 60.7788 59.3893 61.1863 59.0768 61.8616C58.7047 62.6657 58.3816 63.8786 58.3816 65.82C58.3816 66.029 58.2812 66.2252 58.1117 66.3474C57.9421 66.4695 57.7242 66.5027 57.526 66.4366C57.2387 66.3408 56.9408 66.3357 56.5233 66.3357C52.9891 66.3357 50.0576 69.2682 50.0576 72.8051C50.0576 76.3419 52.9891 79.2745 56.5233 79.2745C60.0535 79.2745 62.8668 76.4756 62.9894 72.917C62.9969 72.7011 63.1112 72.5029 63.2944 72.3884C63.4775 72.2738 63.7057 72.2577 63.9032 72.3455C65.0191 72.8417 66.2703 73.0954 67.6668 73.0954C68.9335 73.0954 70.3181 72.8402 71.4305 72.3455C71.6279 72.2577 71.8561 72.2738 72.0393 72.3884C72.2225 72.5029 72.3368 72.7011 72.3442 72.917C72.4669 76.4756 75.2801 79.2745 78.8103 79.2745C82.3446 79.2745 85.2761 76.3419 85.2761 72.8051C85.2761 69.2682 82.3446 66.3357 78.8103 66.3357C78.3929 66.3357 78.0949 66.3408 77.8077 66.4366C77.6024 66.5051 77.3766 66.4669 77.2052 66.3349C77.0339 66.2028 76.9394 65.9941 76.9534 65.7782C77.0835 63.7595 76.8513 62.5196 76.5285 61.7124C76.2107 60.9175 75.7874 60.4912 75.3969 60.1004C75.1987 59.9022 75.15 59.5992 75.276 59.3488C75.402 59.0984 75.6743 58.957 75.9516 58.9979C79.9295 59.5851 82.2679 58.7843 83.6065 57.6363C84.9548 56.48 85.4103 54.8683 85.4103 53.5961C85.4103 50.5966 83.0159 48.2014 80.0187 48.2014H78.0048C77.8526 48.2014 77.7127 48.1491 77.602 48.0615ZM52.2058 35.3276C52.2058 32.328 54.6003 29.9328 57.5974 29.9328C60.364 29.9328 62.5201 31.851 63.0006 34.3745C63.0377 34.5695 63.1619 34.7368 63.3377 34.8289C63.5136 34.9209 63.7218 34.9275 63.9032 34.8469C65.0495 34.3372 66.4358 33.9627 67.8011 33.9627C69.1575 33.9627 70.4106 34.3317 71.7217 34.8564C71.9019 34.9286 72.105 34.9163 72.2754 34.8231C72.4457 34.7298 72.5654 34.5653 72.6017 34.3745C73.0805 31.8596 75.3639 29.9328 78.0048 29.9328C81.002 29.9328 83.3965 32.328 83.3965 35.3276C83.3965 38.3271 81.002 40.7224 78.0048 40.7224H78.004H78.0033H78.0025H78.0017H78.0009H78.0002H77.9994H77.9986H77.9979H77.9971H77.9964H77.9956H77.9949H77.9941H77.9934H77.9926H77.9919H77.9912H77.9904H77.9897H77.989H77.9883H77.9875H77.9868H77.9861H77.9854H77.9847H77.984H77.9833H77.9826H77.9819H77.9812H77.9805H77.9798H77.9791H77.9784H77.9777H77.9771H77.9764H77.9757H77.975H77.9744H77.9737H77.973H77.9724H77.9717H77.971H77.9704H77.9697H77.9691H77.9684H77.9678H77.9672H77.9665H77.9659H77.9652H77.9646H77.964H77.9634H77.9627H77.9621H77.9615H77.9609H77.9603H77.9596H77.959H77.9584H77.9578H77.9572H77.9566H77.956H77.9554H77.9548H77.9542H77.9536H77.953H77.9525H77.9519H77.9513H77.9507H77.9501H77.9496H77.949H77.9484H77.9478H77.9473H77.9467H77.9461H77.9456H77.945H77.9445H77.9439H77.9434H77.9428H77.9423H77.9417H77.9412H77.9406H77.9401H77.9395H77.939H77.9385H77.9379H77.9374H77.9369H77.9363H77.9358H77.9353H77.9348H77.9342H77.9337H77.9332H77.9327H77.9322H77.9316H77.9311H77.9306H77.9301H77.9296H77.9291H77.9286H77.9281H77.9276H77.9271H77.9266H77.9261H77.9256H77.9251H77.9246H77.9241H77.9236H77.9232H77.9227H77.9222H77.9217H77.9212H77.9208H77.9203H77.9198H77.9193H77.9189H77.9184H77.9179H77.9174H77.917H77.9165H77.916H77.9156H77.9151H77.9146H77.9142H77.9137H77.9133H77.9128H77.9124H77.9119H77.9115H77.911H77.9106H77.9101H77.9097H77.9092H77.9088H77.9083H77.9079H77.9074H77.907H77.9066H77.9061H77.9057H77.9052H77.9048H77.9044H77.9039H77.9035H77.9031H77.9026H77.9022H77.9018H77.9013H77.9009H77.9005H77.9001H77.8996H77.8992H77.8988H77.8984H77.8979H77.8975H77.8971H77.8967H77.8963H77.8959H77.8954H77.895H77.8946H77.8942H77.8938H77.8934H77.893H77.8925H77.8921H77.8917H77.8913H77.8909H77.8905H77.8901H77.8897H77.8893H77.8889H77.8885H77.8881H77.8876H77.8872H77.8868H77.8864H77.886H77.8856H77.8852H77.8848H77.8844H77.884H77.8836H77.8832H77.8828H77.8824H77.882H77.8816H77.8812H77.8808H77.8804H77.88H77.8796H77.8792H77.8789H77.8785H77.8781H77.8777H77.8773H77.8769H77.8765H77.8761H77.8757H77.8753H77.8749H77.8745H77.8741H77.8737H77.8733H77.8729H77.8725H77.8721H77.8718H77.8714H77.871H77.8706H77.8702H77.8698H77.8694H77.869H77.8686H77.8682H77.8678H77.8674H77.867H77.8666H77.8662H77.8659H77.8655H77.8651H77.8647H77.8643H77.8639H77.8635H77.8631H77.8627H77.8623H77.8619H77.8615H77.8611H77.8607H77.8603H77.8599H77.8595H77.8591H77.8587H77.8583H77.8579H77.8575H77.8571H77.8567H77.8563H77.8559H77.8555H77.8551H77.8547H77.8543H77.8539H77.8535H77.8531H77.8527H77.8523H77.8519H77.8515H77.8511H77.8507H77.8503H77.8498H77.8494H77.849H77.8486H77.8482H77.8478H77.8474H77.847H77.8465H77.8461H77.8457H77.8453H77.8449H77.8445H77.844H77.8436H77.8432H77.8428H77.8424H77.8419H77.8415H77.8411H77.8407H77.8402H77.8398H77.8394H77.8389H77.8385H77.8381H77.8377H77.8372H77.8368H77.8363H77.8359H77.8355H77.835H77.8346H77.8342H77.8337H77.8333H77.8328H77.8324H77.8319H77.8315H77.831H77.8306H77.8301H77.8297H77.8292H77.8288H77.8283H77.8279H77.8274H77.827H77.8265H77.826H77.8256H77.8251H77.8246H77.8242H77.8237H77.8232H77.8228H77.8223H77.8218H77.8214H77.8209H77.8204H77.8199H77.8194H77.819H77.8185H77.818H77.8175H77.817H77.8165H77.816H77.8155H77.815H77.8146H77.8141H77.8136H77.8131H77.8126H77.812H77.8115H77.811H77.8105H77.81H77.8095H77.809H77.8085H77.808H77.8074H77.8069H77.8064H77.8059H77.8054H77.8048H77.8043H77.8038H77.8032H77.8027H77.8022H77.8016H77.8011H77.8005H77.8H77.7995H77.7989H77.7984H77.7978H77.7972H77.7967H77.7961H77.7956H77.795H77.7944H77.7939H77.7933H77.7927H77.7922H77.7916H77.791H77.7904H77.7899H77.7893H77.7887H77.7881H77.7875H77.7869H77.7863H77.7857H77.7851H77.7845H77.7839H77.7833H77.7827H77.7821H77.7815H77.7809H77.7803H77.7797H77.779H77.7784H77.7778H77.7772H77.7765H77.7759H77.7753H77.7746H77.774H77.7734H77.7727H77.7721H77.7714H77.7708H77.7701H77.7694H77.7688H77.7681H77.7675H77.7668H77.7661H77.7655H77.7648H77.7641H77.7634H77.7627H77.7621H77.7614H77.7607H77.76H77.7593H77.7586H77.7579H77.7572H77.7565H77.7558H77.7551H77.7543H77.7536H77.7529H77.7522H77.7514H77.7507H77.75H77.7493H77.7485H77.7478H77.747H77.7463H77.7455H77.7448H77.744H77.7433H77.7425H77.7418H77.741H77.7402H77.7394H77.7387H77.7379H77.7371H77.7363C77.5416 40.7224 77.3571 40.8097 77.2337 40.9602C77.1102 41.1108 77.0608 41.3088 77.0989 41.4998C77.2355 42.1831 77.3548 42.791 77.3548 43.3873C77.3548 48.6704 73.0807 52.9463 67.8011 52.9463C62.5215 52.9463 58.2474 48.6704 58.2474 43.3873C58.2474 42.791 58.3667 42.1831 58.5033 41.4998C58.5415 41.3088 58.4921 41.1108 58.3686 40.9602C58.2451 40.8097 58.0607 40.7224 57.8659 40.7224H57.8652H57.8644H57.8636H57.8628H57.862H57.8613H57.8605H57.8597H57.859H57.8582H57.8575H57.8567H57.856H57.8552H57.8545H57.8537H57.853H57.8523H57.8515H57.8508H57.8501H57.8494H57.8486H57.8479H57.8472H57.8465H57.8458H57.8451H57.8444H57.8437H57.843H57.8423H57.8416H57.8409H57.8402H57.8395H57.8388H57.8382H57.8375H57.8368H57.8361H57.8355H57.8348H57.8341H57.8335H57.8328H57.8322H57.8315H57.8309H57.8302H57.8296H57.8289H57.8283H57.8276H57.827H57.8264H57.8257H57.8251H57.8245H57.8238H57.8232H57.8226H57.822H57.8214H57.8208H57.8201H57.8195H57.8189H57.8183H57.8177H57.8171H57.8165H57.8159H57.8153H57.8147H57.8142H57.8136H57.813H57.8124H57.8118H57.8112H57.8107H57.8101H57.8095H57.8089H57.8084H57.8078H57.8073H57.8067H57.8061H57.8056H57.805H57.8045H57.8039H57.8034H57.8028H57.8023H57.8017H57.8012H57.8006H57.8001H57.7996H57.799H57.7985H57.798H57.7974H57.7969H57.7964H57.7959H57.7953H57.7948H57.7943H57.7938H57.7933H57.7928H57.7922H57.7917H57.7912H57.7907H57.7902H57.7897H57.7892H57.7887H57.7882H57.7877H57.7872H57.7867H57.7862H57.7857H57.7852H57.7848H57.7843H57.7838H57.7833H57.7828H57.7823H57.7819H57.7814H57.7809H57.7804H57.78H57.7795H57.779H57.7785H57.7781H57.7776H57.7771H57.7767H57.7762H57.7758H57.7753H57.7748H57.7744H57.7739H57.7735H57.773H57.7726H57.7721H57.7717H57.7712H57.7708H57.7703H57.7699H57.7694H57.769H57.7685H57.7681H57.7677H57.7672H57.7668H57.7663H57.7659H57.7655H57.765H57.7646H57.7642H57.7637H57.7633H57.7629H57.7625H57.762H57.7616H57.7612H57.7608H57.7603H57.7599H57.7595H57.7591H57.7586H57.7582H57.7578H57.7574H57.757H57.7565H57.7561H57.7557H57.7553H57.7549H57.7545H57.7541H57.7537H57.7532H57.7528H57.7524H57.752H57.7516H57.7512H57.7508H57.7504H57.75H57.7496H57.7492H57.7488H57.7484H57.748H57.7475H57.7471H57.7467H57.7463H57.7459H57.7455H57.7451H57.7447H57.7443H57.7439H57.7435H57.7431H57.7427H57.7423H57.7419H57.7416H57.7412H57.7408H57.7404H57.74H57.7396H57.7392H57.7388H57.7384H57.738H57.7376H57.7372H57.7368H57.7364H57.736H57.7356H57.7352H57.7348H57.7344H57.734H57.7337H57.7333H57.7329H57.7325H57.7321H57.7317H57.7313H57.7309H57.7305H57.7301H57.7297H57.7293H57.7289H57.7285H57.7281H57.7278H57.7274H57.727H57.7266H57.7262H57.7258H57.7254H57.725H57.7246H57.7242H57.7238H57.7234H57.723H57.7226H57.7222H57.7218H57.7214H57.721H57.7206H57.7202H57.7198H57.7194H57.719H57.7186H57.7182H57.7178H57.7174H57.717H57.7166H57.7162H57.7158H57.7154H57.715H57.7146H57.7142H57.7138H57.7134H57.713H57.7126H57.7122H57.7118H57.7114H57.711H57.7105H57.7101H57.7097H57.7093H57.7089H57.7085H57.7081H57.7077H57.7072H57.7068H57.7064H57.706H57.7056H57.7052H57.7047H57.7043H57.7039H57.7035H57.703H57.7026H57.7022H57.7018H57.7013H57.7009H57.7005H57.7001H57.6996H57.6992H57.6988H57.6983H57.6979H57.6975H57.697H57.6966H57.6962H57.6957H57.6953H57.6948H57.6944H57.6939H57.6935H57.6931H57.6926H57.6922H57.6917H57.6913H57.6908H57.6904H57.6899H57.6894H57.689H57.6885H57.6881H57.6876H57.6871H57.6867H57.6862H57.6858H57.6853H57.6848H57.6844H57.6839H57.6834H57.6829H57.6825H57.682H57.6815H57.681H57.6805H57.6801H57.6796H57.6791H57.6786H57.6781H57.6776H57.6771H57.6767H57.6762H57.6757H57.6752H57.6747H57.6742H57.6737H57.6732H57.6727H57.6721H57.6716H57.6711H57.6706H57.6701H57.6696H57.6691H57.6686H57.668H57.6675H57.667H57.6665H57.6659H57.6654H57.6649H57.6643H57.6638H57.6633H57.6627H57.6622H57.6617H57.6611H57.6606H57.66H57.6595H57.6589H57.6584H57.6578H57.6572H57.6567H57.6561H57.6556H57.655H57.6544H57.6539H57.6533H57.6527H57.6521H57.6516H57.651H57.6504H57.6498H57.6492H57.6486H57.648H57.6474H57.6469H57.6463H57.6457H57.6451H57.6444H57.6438H57.6432H57.6426H57.642H57.6414H57.6408H57.6402H57.6395H57.6389H57.6383H57.6376H57.637H57.6364H57.6357H57.6351H57.6345H57.6338H57.6332H57.6325H57.6319H57.6312H57.6306H57.6299H57.6292H57.6286H57.6279H57.6272H57.6266H57.6259H57.6252H57.6245H57.6239H57.6232H57.6225H57.6218H57.6211H57.6204H57.6197H57.619H57.6183H57.6176H57.6169H57.6162H57.6155H57.6147H57.614H57.6133H57.6126H57.6118H57.6111H57.6104H57.6096H57.6089H57.6081H57.6074H57.6067H57.6059H57.6051H57.6044H57.6036H57.6029H57.6021H57.6013H57.6006H57.5998H57.599H57.5982H57.5974C54.6003 40.7224 52.2058 38.3271 52.2058 35.3276ZM67.9354 44.8867C68.2944 44.8867 68.5854 45.1777 68.5854 45.5367V49.5666C68.5854 49.9256 68.2944 50.2166 67.9354 50.2166C67.5764 50.2166 67.2854 49.9256 67.2854 49.5666V45.5367C67.2854 45.1777 67.5764 44.8867 67.9354 44.8867Z" fill="#0070BA"/>
</svg>
