<svg width="34" height="33" viewBox="0 0 34 33" fill="none" xmlns="http://www.w3.org/2000/svg">
<path fill-rule="evenodd" clip-rule="evenodd" d="M16.5748 0.126667C16.8044 -0.0424649 17.1174 -0.0421982 17.3467 0.127324L33.5989 12.1423C33.8875 12.3557 33.9486 12.7628 33.7351 13.0514C33.5217 13.3401 33.1147 13.4011 32.8261 13.1877L16.9596 1.45783L1.03556 13.1883C0.74653 13.4013 0.339624 13.3396 0.12671 13.0505C-0.086205 12.7615 -0.0245021 12.3546 0.264527 12.1417L16.5748 0.126667ZM4.48089 14.1371C4.85396 14.1371 5.15639 14.4395 5.15639 14.8126V29.0637H28.7061V14.8126C28.7061 14.4395 29.0085 14.1371 29.3816 14.1371C29.7546 14.1371 30.0571 14.4395 30.0571 14.8126V31.8194C30.0571 32.1924 29.7546 32.4949 29.3816 32.4949H4.48089C4.10782 32.4949 3.80539 32.1924 3.80539 31.8194V14.8126C3.80539 14.4395 4.10782 14.1371 4.48089 14.1371ZM28.7061 30.2797H5.15639V31.1439H28.7061V30.2797ZM17.6358 17.0763C17.6358 16.7033 17.3333 16.4008 16.9603 16.4008C16.5872 16.4008 16.2848 16.7033 16.2848 17.0763V25.2377L13.6504 22.0445C13.413 21.7568 12.9873 21.7159 12.6995 21.9533C12.4117 22.1908 12.3709 22.6165 12.6083 22.9043L16.4392 27.5478C16.4743 27.5903 16.5141 27.628 16.5575 27.6602C16.6564 27.7338 16.7761 27.7809 16.9062 27.7912C16.9241 27.7927 16.9421 27.7934 16.9603 27.7934C16.9784 27.7934 16.9965 27.7927 17.0144 27.7912C17.1484 27.7806 17.2714 27.7309 17.372 27.6535C17.3952 27.6356 17.4172 27.6162 17.4379 27.5955C17.4542 27.5792 17.4697 27.5621 17.4842 27.5442L21.3122 22.9043C21.5496 22.6165 21.5088 22.1908 21.221 21.9533C20.9332 21.7159 20.5075 21.7568 20.2701 22.0445L17.6358 25.2376V17.0763Z" fill="#006FB9"/>
</svg>
