<svg width="117" height="91" viewBox="0 0 117 91" fill="none" xmlns="http://www.w3.org/2000/svg">
<path fill-rule="evenodd" clip-rule="evenodd" d="M7.07876 0.200943C7.32677 -0.0585994 7.73822 -0.0679505 7.99776 0.180057L38.8529 29.6638H81.0519L107.797 1.58144C108.045 1.32148 108.456 1.31145 108.716 1.55902C108.976 1.8066 108.986 2.21804 108.738 2.47799L82.0134 30.5393V69.6697L90.3713 74.5862V43.4211V42.981L90.7799 42.8176L104.577 37.2987L105.468 36.9422V37.9023V83.4328H105.411L116.186 89.7711C116.495 89.9531 116.598 90.3515 116.416 90.6609C116.234 90.9703 115.836 91.0736 115.527 90.8916L81.6693 70.9755H81.3633H37.9024H37.3931L0.945033 89.5309C0.625118 89.6938 0.233748 89.5665 0.0708826 89.2465C-0.0919828 88.9266 0.0353304 88.5352 0.355245 88.3724L15.177 80.8268V35.8327V34.8032L16.1064 35.2458L30.5934 42.1444L30.964 42.3208V42.7313V72.7898L37.2524 69.5884V30.3138V29.9326L7.09965 1.11994C6.8401 0.871937 6.83075 0.460486 7.07876 0.200943ZM30.3842 73.0849H29.664V58.5569C29.6508 58.5577 29.6375 58.5581 29.6241 58.5581H25.485C25.126 58.5581 24.835 58.2671 24.835 57.9081C24.835 57.5491 25.126 57.2581 25.485 57.2581H29.6241C29.6375 57.2581 29.6508 57.2585 29.664 57.2593V43.1417L16.477 36.8621V80.165L30.3842 73.0849ZM38.5915 30.9638H38.5928H80.0247C80.0135 31.1485 80.0807 31.3368 80.2252 31.4744C80.3615 31.6041 80.5393 31.6631 80.7134 31.6525V68.9867C80.4771 68.9724 80.2415 69.0881 80.1132 69.3061C80.045 69.4221 80.0169 69.5506 80.0247 69.6755H67.5264V55.8385V42.7313V42.0812H66.8764H51.0097H50.3597V42.7313V69.6755H39.2411C39.2481 69.5634 39.2261 69.4481 39.1715 69.3408C39.0504 69.1029 38.8029 68.9715 38.5524 68.9867V30.9638H38.5915ZM62.7372 55.1885H66.2264V43.3813H51.6597V69.6755H66.2264V56.4885H62.7372C62.3782 56.4885 62.0872 56.1975 62.0872 55.8385C62.0872 55.4795 62.3782 55.1885 62.7372 55.1885ZM104.168 82.7021V38.8623L91.6713 43.8612V58.1344C91.7483 58.1151 91.8301 58.1096 91.9136 58.1205L95.9342 58.6432C96.2901 58.6895 96.5412 59.0156 96.4949 59.3716C96.4486 59.7276 96.1225 59.9787 95.7665 59.9324L91.746 59.4096C91.7205 59.4063 91.6956 59.4016 91.6713 59.3955V75.1545H91.3375L104.168 82.7021Z" fill="#0070BA"/>
</svg>
