<?xml version="1.0" encoding="UTF-8" standalone="no"?>
<svg
   xmlns:dc="http://purl.org/dc/elements/1.1/"
   xmlns:cc="http://creativecommons.org/ns#"
   xmlns:rdf="http://www.w3.org/1999/02/22-rdf-syntax-ns#"
   xmlns:svg="http://www.w3.org/2000/svg"
   xmlns="http://www.w3.org/2000/svg"
   xmlns:sodipodi="http://sodipodi.sourceforge.net/DTD/sodipodi-0.dtd"
   xmlns:inkscape="http://www.inkscape.org/namespaces/inkscape"
   version="1.1"
   id="svg2"
   xml:space="preserve"
   width="91"
   height="91"
   viewBox="0 0 91.000003 91.000003"
   sodipodi:docname="ico-nlvt.svg"
   inkscape:version="1.0.1 (3bc2e813f5, 2020-09-07)"><metadata
     id="metadata8"><rdf:RDF><cc:Work
         rdf:about=""><dc:format>image/svg+xml</dc:format><dc:type
           rdf:resource="http://purl.org/dc/dcmitype/StillImage" /><dc:title></dc:title></cc:Work></rdf:RDF></metadata><defs
     id="defs6"><clipPath
       clipPathUnits="userSpaceOnUse"
       id="clipPath18"><path
         d="m 12.554,37.89 h 93.069 V 79.205 H 12.554 Z"
         id="path16" /></clipPath><clipPath
       clipPathUnits="userSpaceOnUse"
       id="clipPath38"><path
         d="m 12.554,37.89 h 93.069 V 79.205 H 12.554 Z"
         id="path36" /></clipPath><clipPath
       clipPathUnits="userSpaceOnUse"
       id="clipPath70"><path
         d="m 12.554,37.89 h 93.069 V 79.205 H 12.554 Z"
         id="path68" /></clipPath></defs><sodipodi:namedview
     pagecolor="#ffffff"
     bordercolor="#666666"
     borderopacity="1"
     objecttolerance="10"
     gridtolerance="10"
     guidetolerance="10"
     inkscape:pageopacity="0"
     inkscape:pageshadow="2"
     inkscape:window-width="1920"
     inkscape:window-height="1001"
     id="namedview4"
     showgrid="false"
     inkscape:zoom="1.848616"
     inkscape:cx="-10.314608"
     inkscape:cy="128.95344"
     inkscape:window-x="-9"
     inkscape:window-y="-9"
     inkscape:window-maximized="1"
     inkscape:current-layer="g10" /><g
     id="g10"
     inkscape:groupmode="layer"
     inkscape:label="Icon-LVT2"
     transform="matrix(1.3333333,0,0,-1.3333333,0,158.74)"><g
       id="g12"
       transform="matrix(0.76547046,0,0,0.76547046,-11.255528,36.832815)"><g
         id="g14"
         clip-path="url(#clipPath18)"><g
           id="g20"
           transform="translate(17.6226,49.9131)"><path
             d="m 0,0 h 39.894 c 0,0 9.83,-0.162 14.424,1.238 5.854,1.784 9.681,4.344 9.681,4.344 l 1.276,-11.164 c 0,0 -0.684,-1.502 -7.352,-3.904 -5.895,-2.122 -19.017,-2.201 -19.017,-2.201 l -43.566,0.112"
             style="fill:#ffffff;fill-opacity:1;fill-rule:nonzero;stroke:#007ac2;stroke-width:0.673;stroke-linecap:round;stroke-linejoin:round;stroke-miterlimit:10;stroke-dasharray:none;stroke-opacity:1"
             id="path22" /></g></g></g><g
       id="g24"
       transform="matrix(0.76547046,0,0,0.76547046,7.5799437,88.697954)"><path
         d="M 0,0 H 73.483"
         style="fill:none;stroke:#007ac2;stroke-width:0.673;stroke-linecap:round;stroke-linejoin:round;stroke-miterlimit:10;stroke-dasharray:none;stroke-opacity:1"
         id="path26" /></g><g
       id="g28"
       transform="matrix(0.76547046,0,0,0.76547046,5.3755419,82.856343)"><path
         d="M 0,0 H 79.57"
         style="fill:none;stroke:#007ac2;stroke-width:0.673;stroke-linecap:round;stroke-linejoin:round;stroke-miterlimit:10;stroke-dasharray:none;stroke-opacity:1"
         id="path30" /></g><g
       id="g32"
       transform="matrix(0.76547046,0,0,0.76547046,-11.255528,36.832815)"><g
         id="g34"
         clip-path="url(#clipPath38)"><g
           id="g40"
           transform="translate(17.6084,50.1074)"><path
             d="M 0,0 H 87.678"
             style="fill:none;stroke:#007ac2;stroke-width:0.673;stroke-linecap:round;stroke-linejoin:round;stroke-miterlimit:10;stroke-dasharray:none;stroke-opacity:1"
             id="path42" /></g></g></g><g
       id="g44"
       transform="matrix(0.76547046,0,0,0.76547046,21.501632,88.612681)"><path
         d="M 0,0 -0.893,-7.109"
         style="fill:none;stroke:#007ac2;stroke-width:0.673;stroke-linecap:round;stroke-linejoin:round;stroke-miterlimit:10;stroke-dasharray:none;stroke-opacity:1"
         id="path46" /></g><g
       id="g48"
       transform="matrix(0.76547046,0,0,0.76547046,35.909087,82.734097)"><path
         d="M 0,0 V -9.601"
         style="fill:none;stroke:#007ac2;stroke-width:0.673;stroke-linecap:round;stroke-linejoin:round;stroke-miterlimit:10;stroke-dasharray:none;stroke-opacity:1"
         id="path50" /></g><g
       id="g52"
       transform="matrix(0.76547046,0,0,0.76547046,35.909087,97.060949)"><path
         d="M 0,0 V -4.413"
         style="fill:none;stroke:#007ac2;stroke-width:0.673;stroke-linecap:round;stroke-linejoin:round;stroke-miterlimit:10;stroke-dasharray:none;stroke-opacity:1"
         id="path54" /></g><g
       id="g56"
       transform="matrix(0.76547046,0,0,0.76547046,9.5530969,93.486202)"><path
         d="M 0,0 H 68.192"
         style="fill:none;stroke:#007ac2;stroke-width:0.673;stroke-linecap:round;stroke-linejoin:round;stroke-miterlimit:10;stroke-dasharray:none;stroke-opacity:1"
         id="path58" /></g><g
       id="g60"
       transform="matrix(0.76547046,0,0,0.76547046,49.894615,93.323231)"><path
         d="M 0,0 0.651,-5.716"
         style="fill:none;stroke:#007ac2;stroke-width:0.673;stroke-linecap:round;stroke-linejoin:round;stroke-miterlimit:10;stroke-dasharray:none;stroke-opacity:1"
         id="path62" /></g><g
       id="g64"
       transform="matrix(0.76547046,0,0,0.76547046,-11.255528,36.832815)"><g
         id="g66"
         clip-path="url(#clipPath70)"><g
           id="g72"
           transform="translate(29.0347,78.8687)"><path
             d="M 0,0 H 64.344"
             style="fill:none;stroke:#007ac2;stroke-width:0.673;stroke-linecap:round;stroke-linejoin:round;stroke-miterlimit:10;stroke-dasharray:none;stroke-opacity:1"
             id="path74" /></g><g
           id="g76"
           transform="translate(16.9219,50.2129)"><path
             d="m 0,0 h 39.894 c 0,0 9.83,-0.163 14.423,1.237 5.855,1.784 9.681,4.344 9.681,4.344 l 1.277,-11.163 c 0,0 -0.683,-1.503 -7.352,-3.904 -5.896,-2.123 -19.017,-2.202 -19.017,-2.202 l -42.938,0.112"
             style="fill:#ffffff;fill-opacity:1;fill-rule:nonzero;stroke:#007ac2;stroke-width:0.673;stroke-linecap:round;stroke-linejoin:round;stroke-miterlimit:10;stroke-dasharray:none;stroke-opacity:1"
             id="path78" /></g></g></g></g></svg>
