<?xml version="1.0" encoding="UTF-8" standalone="no"?>
<svg
   xmlns:dc="http://purl.org/dc/elements/1.1/"
   xmlns:cc="http://creativecommons.org/ns#"
   xmlns:rdf="http://www.w3.org/1999/02/22-rdf-syntax-ns#"
   xmlns:svg="http://www.w3.org/2000/svg"
   xmlns="http://www.w3.org/2000/svg"
   xmlns:sodipodi="http://sodipodi.sourceforge.net/DTD/sodipodi-0.dtd"
   xmlns:inkscape="http://www.inkscape.org/namespaces/inkscape"
   version="1.1"
   id="svg2"
   xml:space="preserve"
   width="91"
   height="91"
   viewBox="0 0 91.000003 91.000003"
   sodipodi:docname="Icon-kraska.svg"
   inkscape:version="1.0.1 (3bc2e813f5, 2020-09-07)"><metadata
     id="metadata8"><rdf:RDF><cc:Work
         rdf:about=""><dc:format>image/svg+xml</dc:format><dc:type
           rdf:resource="http://purl.org/dc/dcmitype/StillImage" /><dc:title></dc:title></cc:Work></rdf:RDF></metadata><defs
     id="defs6"><clipPath
       clipPathUnits="userSpaceOnUse"
       id="clipPath18"><path
         d="M 0,119.055 H 119.055 V 0 H 0 Z"
         id="path16" /></clipPath></defs><sodipodi:namedview
     pagecolor="#ffffff"
     bordercolor="#666666"
     borderopacity="1"
     objecttolerance="10"
     gridtolerance="10"
     guidetolerance="10"
     inkscape:pageopacity="0"
     inkscape:pageshadow="2"
     inkscape:window-width="1920"
     inkscape:window-height="1001"
     id="namedview4"
     showgrid="false"
     inkscape:zoom="5.2286756"
     inkscape:cx="79.370003"
     inkscape:cy="48.76952"
     inkscape:window-x="-9"
     inkscape:window-y="-9"
     inkscape:window-maximized="1"
     inkscape:current-layer="g10" /><g
     id="g10"
     inkscape:groupmode="layer"
     inkscape:label="Icon-344_Kraska"
     transform="matrix(1.3333333,0,0,-1.3333333,0,158.74)"><g
       id="g12"
       transform="matrix(1.1417174,0,0,1.1417174,-30.225364,6.5107296)"><g
         id="g14"
         clip-path="url(#clipPath18)"><g
           id="g20"
           transform="translate(50.6617,52.6763)"><path
             d="m 0,0 -6.357,6.356 c -0.553,0.554 -0.553,1.451 0,2.005 l 20.613,20.613 c 0.554,0.553 1.451,0.553 2.005,0 l 6.356,-6.357 c 0.554,-0.553 0.554,-1.451 0,-2.004 L 2.004,0 C 1.451,-0.553 0.554,-0.553 0,0 Z"
             style="fill:none;stroke:#006fb9;stroke-width:1.3;stroke-linecap:butt;stroke-linejoin:miter;stroke-miterlimit:10;stroke-dasharray:none;stroke-opacity:1"
             id="path22" /></g><g
           id="g24"
           transform="translate(70.2155,53.5449)"><path
             d="m 0,0 2.195,2.195 c 0.482,0.482 1.263,0.482 1.745,0 L 14.525,-8.391 c 0.482,-0.482 0.482,-1.263 0,-1.745 l -2.194,-2.195 c -0.482,-0.481 -1.263,-0.481 -1.745,0 L 0,-1.745 C -0.482,-1.263 -0.482,-0.482 0,0 Z"
             style="fill:none;stroke:#006fb9;stroke-width:1.3;stroke-linecap:butt;stroke-linejoin:miter;stroke-miterlimit:10;stroke-dasharray:none;stroke-opacity:1"
             id="path26" /></g><g
           id="g28"
           transform="translate(71.0634,54.3928)"><path
             d="M 0,0 -2.215,2.215 C -2.519,2.519 -2.58,2.99 -2.364,3.362 l 9.899,16.564 c 0.212,0.364 0.152,0.825 -0.145,1.123 l -4.98,4.979 c -0.306,0.306 -0.802,0.306 -1.108,0 l -1.969,-1.969"
             style="fill:none;stroke:#006fb9;stroke-width:1.3;stroke-linecap:butt;stroke-linejoin:miter;stroke-miterlimit:10;stroke-dasharray:none;stroke-opacity:1"
             id="path30" /></g><g
           id="g32"
           transform="translate(62.3604,83.2463)"><path
             d="m 0,0 -12.504,12.504 c -0.857,0.857 -2.313,0.152 -2.174,-1.051 V 11.45 c 0.094,-0.809 -0.583,-1.499 -1.394,-1.419 -3.387,0.331 -6.501,-1.884 -7.298,-5.192 -0.322,-1.338 -1.33,-2.405 -2.647,-2.804 l -2.235,-0.677 c -0.556,-0.168 -1.144,-0.206 -1.717,-0.109 -2.949,0.495 -5.392,-2.281 -4.524,-5.143 0.061,-0.201 0.17,-0.384 0.319,-0.533 l 14.873,-14.874"
             style="fill:none;stroke:#006fb9;stroke-width:1.3;stroke-linecap:round;stroke-linejoin:round;stroke-miterlimit:10;stroke-dasharray:none;stroke-opacity:1"
             id="path34" /></g></g></g></g></svg>
