<?xml version="1.0" encoding="UTF-8" standalone="no"?>
<svg
   xmlns:dc="http://purl.org/dc/elements/1.1/"
   xmlns:cc="http://creativecommons.org/ns#"
   xmlns:rdf="http://www.w3.org/1999/02/22-rdf-syntax-ns#"
   xmlns:svg="http://www.w3.org/2000/svg"
   xmlns="http://www.w3.org/2000/svg"
   xmlns:sodipodi="http://sodipodi.sourceforge.net/DTD/sodipodi-0.dtd"
   xmlns:inkscape="http://www.inkscape.org/namespaces/inkscape"
   version="1.1"
   id="svg2"
   xml:space="preserve"
   width="158.74001"
   height="158.74001"
   viewBox="0 0 158.74001 158.74001"
   sodipodi:docname="Icon-stoleshnica.svg"
   inkscape:version="1.0.1 (3bc2e813f5, 2020-09-07)"><metadata
     id="metadata8"><rdf:RDF><cc:Work
         rdf:about=""><dc:format>image/svg+xml</dc:format><dc:type
           rdf:resource="http://purl.org/dc/dcmitype/StillImage" /><dc:title></dc:title></cc:Work></rdf:RDF></metadata><defs
     id="defs6"><clipPath
       clipPathUnits="userSpaceOnUse"
       id="clipPath18"><path
         d="m 11.637,23.793 h 95.781 V 95.262 H 11.637 Z"
         id="path16" /></clipPath><clipPath
       clipPathUnits="userSpaceOnUse"
       id="clipPath42"><path
         d="m 11.637,23.793 h 95.781 V 95.262 H 11.637 Z"
         id="path40" /></clipPath></defs><sodipodi:namedview
     pagecolor="#ffffff"
     bordercolor="#666666"
     borderopacity="1"
     objecttolerance="10"
     gridtolerance="10"
     guidetolerance="10"
     inkscape:pageopacity="0"
     inkscape:pageshadow="2"
     inkscape:window-width="1920"
     inkscape:window-height="1017"
     id="namedview4"
     showgrid="false"
     inkscape:zoom="5.3546678"
     inkscape:cx="79.370003"
     inkscape:cy="86.840121"
     inkscape:window-x="-8"
     inkscape:window-y="-8"
     inkscape:window-maximized="1"
     inkscape:current-layer="g10" /><g
     id="g10"
     inkscape:groupmode="layer"
     inkscape:label="Icon-Stoleshnica-1"
     transform="matrix(1.3333333,0,0,-1.3333333,0,158.74)"><g
       id="g12"><g
         id="g14"
         clip-path="url(#clipPath18)"><g
           id="g20"
           transform="translate(90.752,94.9434)"><path
             d="M 0,0 V -28.844 H -62.448 V 0"
             style="fill:none;stroke:#007ac2;stroke-width:0.636;stroke-linecap:round;stroke-linejoin:round;stroke-miterlimit:4;stroke-dasharray:none;stroke-opacity:1"
             id="path22" /></g><g
           id="g24"
           transform="translate(104.0801,24.1104)"><path
             d="M 0,0 V 20.411 H -89.105 V 0"
             style="fill:none;stroke:#007ac2;stroke-width:0.636;stroke-linecap:round;stroke-linejoin:round;stroke-miterlimit:4;stroke-dasharray:none;stroke-opacity:1"
             id="path26" /></g><g
           id="g28"
           transform="translate(28.3032,65.9839)"><path
             d="M 0,0 -16.319,-18.905 H 78.767 L 62.449,0 Z"
             style="fill:none;stroke:#007ac2;stroke-width:0.636;stroke-linecap:round;stroke-linejoin:round;stroke-miterlimit:4;stroke-dasharray:none;stroke-opacity:1"
             id="path30" /></g><path
           d="M 11.955,44.645 H 107.1 v 2.307 H 11.955 Z"
           style="fill:none;stroke:#007ac2;stroke-width:0.636;stroke-linecap:round;stroke-linejoin:round;stroke-miterlimit:4;stroke-dasharray:none;stroke-opacity:1"
           id="path32" /></g></g><path
       d="m 40.417,36.112 h 38.221 v 1.444 H 40.417 Z"
       style="fill:none;stroke:#007ac2;stroke-width:0.636;stroke-linecap:round;stroke-linejoin:round;stroke-miterlimit:4;stroke-dasharray:none;stroke-opacity:1"
       id="path34" /><g
       id="g36"><g
         id="g38"
         clip-path="url(#clipPath42)"><g
           id="g44"
           transform="translate(65.4102,71.7334)"><path
             d="M 0,0 C 7.07,0 12.803,1.351 12.803,3.017 12.803,4.683 7.07,6.034 0,6.034 -7.071,6.034 -12.803,4.683 -12.803,3.017 -12.803,1.351 -7.071,0 0,0 Z"
             style="fill:none;stroke:#007ac2;stroke-width:0.612;stroke-linecap:round;stroke-linejoin:round;stroke-miterlimit:4;stroke-dasharray:none;stroke-opacity:1"
             id="path46" /></g><g
           id="g48"
           transform="translate(52.6064,74.6323)"><path
             d="m 0,0 v -15.977 c 0,-1.666 5.732,-3.017 12.803,-3.017 7.071,0 12.803,1.351 12.803,3.017 V 0.372 Z"
             style="fill:#ffffff;fill-opacity:1;fill-rule:nonzero;stroke:none"
             id="path50" /></g><g
           id="g52"
           transform="translate(52.6064,74.6323)"><path
             d="m 0,0 v -15.977 c 0,-1.666 5.732,-3.017 12.803,-3.017 7.071,0 12.803,1.351 12.803,3.017 V 0.372 Z"
             style="fill:none;stroke:#007ac2;stroke-width:0.612;stroke-linecap:round;stroke-linejoin:round;stroke-miterlimit:4;stroke-dasharray:none;stroke-opacity:1"
             id="path54" /></g><g
           id="g56"
           transform="translate(65.4102,71.7671)"><path
             d="M 0,0 C 7.389,0 13.379,1.411 13.379,3.152 13.379,4.893 7.389,6.306 0,6.306 -7.39,6.306 -13.379,4.893 -13.379,3.152 -13.379,1.411 -7.39,0 0,0"
             style="fill:#ffffff;fill-opacity:1;fill-rule:nonzero;stroke:none"
             id="path58" /></g><g
           id="g60"
           transform="translate(65.4102,71.7671)"><path
             d="M 0,0 C 7.389,0 13.379,1.411 13.379,3.152 13.379,4.893 7.389,6.306 0,6.306 -7.39,6.306 -13.379,4.893 -13.379,3.152 -13.379,1.411 -7.39,0 0,0 Z"
             style="fill:none;stroke:#007ac2;stroke-width:0.612;stroke-linecap:round;stroke-linejoin:round;stroke-miterlimit:4;stroke-dasharray:none;stroke-opacity:1"
             id="path62" /></g><g
           id="g64"
           transform="translate(65.4102,75.8379)"><path
             d="M 0,0 C 1.394,0 2.523,0.198 2.523,0.441 2.523,0.686 1.394,0.883 0,0.883 -1.394,0.883 -2.524,0.686 -2.524,0.441 -2.524,0.198 -1.394,0 0,0"
             style="fill:#007ac2;fill-opacity:1;fill-rule:nonzero;stroke:none"
             id="path66" /></g><g
           id="g68"
           transform="translate(65.4102,75.8379)"><path
             d="M 0,0 C 1.394,0 2.523,0.198 2.523,0.441 2.523,0.686 1.394,0.883 0,0.883 -1.394,0.883 -2.524,0.686 -2.524,0.441 -2.524,0.198 -1.394,0 0,0 Z"
             style="fill:none;stroke:#007ac2;stroke-width:0.612;stroke-linecap:round;stroke-linejoin:round;stroke-miterlimit:4;stroke-dasharray:none;stroke-opacity:1"
             id="path70" /></g><g
           id="g72"
           transform="translate(65.4102,76.3892)"><path
             d="M 0,0 C 0.597,0 1.081,0.273 1.081,0.609 1.081,0.945 0.597,1.218 0,1.218 -0.598,1.218 -1.081,0.945 -1.081,0.609 -1.081,0.273 -0.598,0 0,0"
             style="fill:#007ac2;fill-opacity:1;fill-rule:nonzero;stroke:none"
             id="path74" /></g><g
           id="g76"
           transform="translate(65.4102,76.3892)"><path
             d="M 0,0 C 0.597,0 1.081,0.273 1.081,0.609 1.081,0.945 0.597,1.218 0,1.218 -0.598,1.218 -1.081,0.945 -1.081,0.609 -1.081,0.273 -0.598,0 0,0 Z"
             style="fill:none;stroke:#007ac2;stroke-width:0.612;stroke-linecap:round;stroke-linejoin:round;stroke-miterlimit:4;stroke-dasharray:none;stroke-opacity:1"
             id="path78" /></g><g
           id="g80"
           transform="translate(51.0195,71.5542)"><path
             d="m 0,0 c 0.501,-0.803 1.167,-1.292 1.485,-1.093 0.32,0.199 0.17,1.01 -0.332,1.814 C 0.652,1.524 -0.013,2.014 -0.332,1.815 -0.65,1.615 -0.502,0.803 0,0"
             style="fill:#007ac2;fill-opacity:1;fill-rule:nonzero;stroke:none"
             id="path82" /></g><g
           id="g84"
           transform="translate(51.0195,71.5542)"><path
             d="m 0,0 c 0.501,-0.803 1.167,-1.292 1.485,-1.093 0.32,0.199 0.17,1.01 -0.332,1.814 C 0.652,1.524 -0.013,2.014 -0.332,1.815 -0.65,1.615 -0.502,0.803 0,0 Z"
             style="fill:none;stroke:#007ac2;stroke-width:0.612;stroke-linecap:round;stroke-linejoin:round;stroke-miterlimit:4;stroke-dasharray:none;stroke-opacity:1"
             id="path86" /></g><g
           id="g88"
           transform="translate(79.7715,71.356)"><path
             d="m 0,0 c -0.502,-0.803 -1.168,-1.292 -1.485,-1.093 -0.321,0.198 -0.171,1.01 0.331,1.814 0.501,0.803 1.167,1.293 1.485,1.093 C 0.649,1.615 0.501,0.803 0,0"
             style="fill:#007ac2;fill-opacity:1;fill-rule:nonzero;stroke:none"
             id="path90" /></g><g
           id="g92"
           transform="translate(79.7715,71.356)"><path
             d="m 0,0 c -0.502,-0.803 -1.168,-1.292 -1.485,-1.093 -0.321,0.198 -0.171,1.01 0.331,1.814 0.501,0.803 1.167,1.293 1.485,1.093 C 0.649,1.615 0.501,0.803 0,0 Z"
             style="fill:none;stroke:#007ac2;stroke-width:0.612;stroke-linecap:round;stroke-linejoin:round;stroke-miterlimit:4;stroke-dasharray:none;stroke-opacity:1"
             id="path94" /></g><g
           id="g96"
           transform="translate(48.7539,63.9492)"><path
             d="M 0,0 C 5.277,0 9.555,1.008 9.555,2.252 9.555,3.495 5.277,4.503 0,4.503 -5.276,4.503 -9.555,3.495 -9.555,2.252 -9.555,1.008 -5.276,0 0,0 Z"
             style="fill:none;stroke:#007ac2;stroke-width:0.612;stroke-linecap:round;stroke-linejoin:round;stroke-miterlimit:4;stroke-dasharray:none;stroke-opacity:1"
             id="path98" /></g><g
           id="g100"
           transform="translate(39.1992,66.1138)"><path
             d="m 0,0 v -11.923 c 0,-1.244 4.278,-2.252 9.555,-2.252 5.277,0 9.555,1.008 9.555,2.252 v 12.2 z"
             style="fill:#ffffff;fill-opacity:1;fill-rule:nonzero;stroke:none"
             id="path102" /></g><g
           id="g104"
           transform="translate(39.1992,66.1138)"><path
             d="m 0,0 v -11.923 c 0,-1.244 4.278,-2.252 9.555,-2.252 5.277,0 9.555,1.008 9.555,2.252 v 12.2 z"
             style="fill:none;stroke:#007ac2;stroke-width:0.612;stroke-linecap:round;stroke-linejoin:round;stroke-miterlimit:4;stroke-dasharray:none;stroke-opacity:1"
             id="path106" /></g><g
           id="g108"
           transform="translate(48.7539,63.9741)"><path
             d="M 0,0 C 5.515,0 9.985,1.053 9.985,2.353 9.985,3.652 5.515,4.706 0,4.706 -5.514,4.706 -9.984,3.652 -9.984,2.353 -9.984,1.053 -5.514,0 0,0"
             style="fill:#ffffff;fill-opacity:1;fill-rule:nonzero;stroke:none"
             id="path110" /></g><g
           id="g112"
           transform="translate(48.7539,63.9741)"><path
             d="M 0,0 C 5.515,0 9.985,1.053 9.985,2.353 9.985,3.652 5.515,4.706 0,4.706 -5.514,4.706 -9.984,3.652 -9.984,2.353 -9.984,1.053 -5.514,0 0,0 Z"
             style="fill:none;stroke:#007ac2;stroke-width:0.612;stroke-linecap:round;stroke-linejoin:round;stroke-miterlimit:4;stroke-dasharray:none;stroke-opacity:1"
             id="path114" /></g><g
           id="g116"
           transform="translate(48.7539,67.0132)"><path
             d="M 0,0 C 1.041,0 1.883,0.147 1.883,0.33 1.883,0.512 1.041,0.659 0,0.659 -1.04,0.659 -1.883,0.512 -1.883,0.33 -1.883,0.147 -1.04,0 0,0"
             style="fill:#007ac2;fill-opacity:1;fill-rule:nonzero;stroke:none"
             id="path118" /></g><g
           id="g120"
           transform="translate(48.7539,67.0132)"><path
             d="M 0,0 C 1.041,0 1.883,0.147 1.883,0.33 1.883,0.512 1.041,0.659 0,0.659 -1.04,0.659 -1.883,0.512 -1.883,0.33 -1.883,0.147 -1.04,0 0,0 Z"
             style="fill:none;stroke:#007ac2;stroke-width:0.612;stroke-linecap:round;stroke-linejoin:round;stroke-miterlimit:4;stroke-dasharray:none;stroke-opacity:1"
             id="path122" /></g><g
           id="g124"
           transform="translate(48.7539,67.4253)"><path
             d="M 0,0 C 0.446,0 0.807,0.204 0.807,0.454 0.807,0.706 0.446,0.908 0,0.908 -0.445,0.908 -0.807,0.706 -0.807,0.454 -0.807,0.204 -0.445,0 0,0"
             style="fill:#007ac2;fill-opacity:1;fill-rule:nonzero;stroke:none"
             id="path126" /></g><g
           id="g128"
           transform="translate(48.7539,67.4253)"><path
             d="M 0,0 C 0.446,0 0.807,0.204 0.807,0.454 0.807,0.706 0.446,0.908 0,0.908 -0.445,0.908 -0.807,0.706 -0.807,0.454 -0.807,0.204 -0.445,0 0,0 Z"
             style="fill:none;stroke:#007ac2;stroke-width:0.612;stroke-linecap:round;stroke-linejoin:round;stroke-miterlimit:4;stroke-dasharray:none;stroke-opacity:1"
             id="path130" /></g><g
           id="g132"
           transform="translate(38.0151,63.8164)"><path
             d="M 0,0 C 0.375,-0.599 0.87,-0.964 1.108,-0.816 1.346,-0.667 1.235,-0.061 0.861,0.538 0.486,1.137 -0.01,1.502 -0.248,1.354 -0.485,1.205 -0.375,0.599 0,0"
             style="fill:#007ac2;fill-opacity:1;fill-rule:nonzero;stroke:none"
             id="path134" /></g><g
           id="g136"
           transform="translate(38.0151,63.8164)"><path
             d="M 0,0 C 0.375,-0.599 0.87,-0.964 1.108,-0.816 1.346,-0.667 1.235,-0.061 0.861,0.538 0.486,1.137 -0.01,1.502 -0.248,1.354 -0.485,1.205 -0.375,0.599 0,0 Z"
             style="fill:none;stroke:#007ac2;stroke-width:0.612;stroke-linecap:round;stroke-linejoin:round;stroke-miterlimit:4;stroke-dasharray:none;stroke-opacity:1"
             id="path138" /></g><g
           id="g140"
           transform="translate(59.4717,63.668)"><path
             d="m 0,0 c -0.375,-0.599 -0.87,-0.964 -1.108,-0.816 -0.238,0.149 -0.128,0.755 0.247,1.354 0.374,0.6 0.871,0.964 1.109,0.816 C 0.485,1.205 0.374,0.599 0,0"
             style="fill:#007ac2;fill-opacity:1;fill-rule:nonzero;stroke:none"
             id="path142" /></g><g
           id="g144"
           transform="translate(59.4717,63.668)"><path
             d="m 0,0 c -0.375,-0.599 -0.87,-0.964 -1.108,-0.816 -0.238,0.149 -0.128,0.755 0.247,1.354 0.374,0.6 0.871,0.964 1.109,0.816 C 0.485,1.205 0.374,0.599 0,0 Z"
             style="fill:none;stroke:#007ac2;stroke-width:0.612;stroke-linecap:round;stroke-linejoin:round;stroke-miterlimit:4;stroke-dasharray:none;stroke-opacity:1"
             id="path146" /></g></g></g></g></svg>
