<?xml version="1.0" encoding="UTF-8" standalone="no"?>
<svg
   xmlns:dc="http://purl.org/dc/elements/1.1/"
   xmlns:cc="http://creativecommons.org/ns#"
   xmlns:rdf="http://www.w3.org/1999/02/22-rdf-syntax-ns#"
   xmlns:svg="http://www.w3.org/2000/svg"
   xmlns="http://www.w3.org/2000/svg"
   xmlns:sodipodi="http://sodipodi.sourceforge.net/DTD/sodipodi-0.dtd"
   xmlns:inkscape="http://www.inkscape.org/namespaces/inkscape"
   version="1.1"
   id="svg2"
   xml:space="preserve"
   width="91"
   height="91"
   viewBox="0 0 91.000003 91.000003"
   sodipodi:docname="Icon-heatfloor.svg"
   inkscape:version="1.0.1 (3bc2e813f5, 2020-09-07)"><metadata
     id="metadata8"><rdf:RDF><cc:Work
         rdf:about=""><dc:format>image/svg+xml</dc:format><dc:type
           rdf:resource="http://purl.org/dc/dcmitype/StillImage" /><dc:title></dc:title></cc:Work></rdf:RDF></metadata><defs
     id="defs6"><clipPath
       clipPathUnits="userSpaceOnUse"
       id="clipPath26"><path
         d="M 0,119.055 H 119.055 V 0 H 0 Z"
         id="path24" /></clipPath></defs><sodipodi:namedview
     pagecolor="#ffffff"
     bordercolor="#666666"
     borderopacity="1"
     objecttolerance="10"
     gridtolerance="10"
     guidetolerance="10"
     inkscape:pageopacity="0"
     inkscape:pageshadow="2"
     inkscape:window-width="1920"
     inkscape:window-height="1001"
     id="namedview4"
     showgrid="false"
     inkscape:zoom="5.2286756"
     inkscape:cx="79.370003"
     inkscape:cy="66.938557"
     inkscape:window-x="-9"
     inkscape:window-y="-9"
     inkscape:window-maximized="1"
     inkscape:current-layer="g10" /><g
     id="g10"
     inkscape:groupmode="layer"
     inkscape:label="Icon-351"
     transform="matrix(1.3333333,0,0,-1.3333333,0,158.74)"><g
       id="g12"
       transform="matrix(1.0475638,0,0,1.0475638,1.5918724,110.48629)"><path
         d="M 0,0 H 62"
         style="fill:none;stroke:#006fb9;stroke-width:1.33;stroke-linecap:round;stroke-linejoin:miter;stroke-miterlimit:10;stroke-dasharray:none;stroke-opacity:1"
         id="path14" /></g><g
       id="g16"
       transform="matrix(1.0475638,0,0,1.0475638,1.5918724,61.158506)"><path
         d="M 0,0 H 62"
         style="fill:none;stroke:#006fb9;stroke-width:1.33;stroke-linecap:round;stroke-linejoin:miter;stroke-miterlimit:10;stroke-dasharray:none;stroke-opacity:1"
         id="path18" /></g><g
       id="g20"
       transform="matrix(1.0475638,0,0,1.0475638,-28.291875,24.038501)"><g
         id="g22"
         clip-path="url(#clipPath26)"><g
           id="g28"
           transform="translate(83.4411,42.7339)"><path
             d="m 0,0 v 27.888 c 0,0.585 -0.474,1.059 -1.058,1.059 h -1.781 c -0.584,0 -1.058,-0.474 -1.058,-1.059 V 3.257 c 0,-3.756 -3.044,-6.8 -6.8,-6.8 h -4.469 c -3.755,0 -6.8,3.044 -6.8,6.8 v 24.631 c 0,0.585 -0.473,1.059 -1.058,1.059 h -1.781 c -0.584,0 -1.058,-0.474 -1.058,-1.059 V 3.257 c 0,-3.756 -3.044,-6.8 -6.8,-6.8 h -4.469 c -3.755,0 -6.799,3.044 -6.799,6.8 v 24.631 c 0,0.585 -0.474,1.059 -1.059,1.059 h -1.781 c -0.584,0 -1.058,-0.474 -1.058,-1.059 V 0"
             style="fill:none;stroke:#006fb9;stroke-width:1.33;stroke-linecap:round;stroke-linejoin:miter;stroke-miterlimit:10;stroke-dasharray:none;stroke-opacity:1"
             id="path30" /></g><g
           id="g32"
           transform="translate(28.5265,42.7339)"><path
             d="m 0,0 v 30.291 c 0,3.171 2.571,5.741 5.742,5.741 h 6.585 c 3.171,0 5.742,-2.57 5.742,-5.741 V 4.411 c 0,-0.48 0.389,-0.868 0.868,-0.868 h 2.161 c 0.479,0 0.868,0.388 0.868,0.868 v 25.88 c 0,3.171 2.571,5.741 5.742,5.741 h 6.585 c 3.171,0 5.742,-2.57 5.742,-5.741 V 4.411 c 0,-0.48 0.388,-0.868 0.868,-0.868 h 2.161 c 0.479,0 0.868,0.388 0.868,0.868 v 25.88 c 0,3.171 2.57,5.741 5.741,5.741 h 6.586 C 59.43,36.032 62,33.462 62,30.291 V 0"
             style="fill:none;stroke:#006fb9;stroke-width:1.33;stroke-linecap:round;stroke-linejoin:miter;stroke-miterlimit:10;stroke-dasharray:none;stroke-opacity:1"
             id="path34" /></g><g
           id="g36"
           transform="translate(32.0695,42.7341)"><path
             d="m 0,0 v 30.291 c 0,1.214 0.984,2.199 2.199,2.199 h 6.585 c 1.214,0 2.199,-0.985 2.199,-2.199 V 2.199 C 10.983,0.984 11.967,0 13.182,0 h 6.585 c 1.214,0 2.199,0.984 2.199,2.199 v 28.092 c 0,1.214 0.984,2.199 2.199,2.199 h 6.585 c 1.214,0 2.199,-0.985 2.199,-2.199 V 2.199 C 32.949,0.984 33.933,0 35.148,0 h 6.585 c 1.214,0 2.199,0.984 2.199,2.199 v 28.092 c 0,1.214 0.984,2.199 2.198,2.199 h 6.586 c 1.214,0 2.199,-0.985 2.199,-2.199 V 0"
             style="fill:none;stroke:#006fb9;stroke-width:1.33;stroke-linecap:round;stroke-linejoin:miter;stroke-miterlimit:10;stroke-dasharray:none;stroke-opacity:1"
             id="path38" /></g></g></g></g></svg>
