<svg width="79" height="71" viewBox="0 0 79 71" fill="none" xmlns="http://www.w3.org/2000/svg">
<path fill-rule="evenodd" clip-rule="evenodd" d="M36.3999 0.949219C36.7589 0.949219 37.0499 1.24023 37.0499 1.59922V10.2992C37.0499 10.4345 37.0077 10.5665 36.9291 10.6766L28.3499 22.7072V23.5492H51.3499V22.7072L42.7707 10.6766C42.6921 10.5665 42.6499 10.4345 42.6499 10.2992V1.59922C42.6499 1.24023 42.9409 0.949219 43.2999 0.949219C43.6589 0.949219 43.9499 1.24023 43.9499 1.59922V10.0912L52.5291 22.1218C52.6077 22.232 52.6499 22.3639 52.6499 22.4992V24.1992C52.6499 24.5582 52.3589 24.8492 51.9999 24.8492H27.6999C27.3409 24.8492 27.0499 24.5582 27.0499 24.1992V22.4992C27.0499 22.3639 27.0921 22.232 27.1707 22.1218L35.7499 10.0912V1.59922C35.7499 1.24023 36.0409 0.949219 36.3999 0.949219ZM0.949951 39.9C0.949951 39.541 1.24097 39.25 1.59995 39.25H26H53.8H78C78.3589 39.25 78.65 39.541 78.65 39.9V49.9527C78.7133 50.0531 78.75 50.172 78.75 50.2994C78.75 50.4269 78.7133 50.5458 78.65 50.6461V69.4C78.65 69.759 78.3589 70.05 78 70.05H53.8H26H1.59995C1.24097 70.05 0.949951 69.759 0.949951 69.4V58.9996V48.5992V39.9ZM2.24995 59.6496V68.75H25.35V59.6496H2.24995ZM25.35 58.3496H2.24995V49.2492H25.35V58.3496ZM2.24995 47.9492H25.35V40.55H2.24995V47.9492ZM77.35 49.6494V40.55H54.45V49.6494H77.35ZM54.45 50.9494H77.35V68.75H54.45V50.9494ZM53.15 50.2994V40.55H26.65V68.75H53.15V50.2994ZM32.25 53.7994C32.25 53.4404 32.541 53.1494 32.9 53.1494H46.8C47.159 53.1494 47.45 53.4404 47.45 53.7994V62.4994C47.45 62.8584 47.159 63.1494 46.8 63.1494H32.9C32.541 63.1494 32.25 62.8584 32.25 62.4994V53.7994ZM33.55 54.4494V61.8494H46.15V54.4494H33.55ZM31.1999 46.1494C30.8409 46.1494 30.5499 46.4404 30.5499 46.7994C30.5499 47.1584 30.8409 47.4494 31.1999 47.4494H34.6999C35.0589 47.4494 35.3499 47.1584 35.3499 46.7994C35.3499 46.4404 35.0589 46.1494 34.6999 46.1494H31.1999ZM37.45 46.7994C37.45 46.4404 37.741 46.1494 38.1 46.1494H41.6C41.9589 46.1494 42.25 46.4404 42.25 46.7994C42.25 47.1584 41.9589 47.4494 41.6 47.4494H38.1C37.741 47.4494 37.45 47.1584 37.45 46.7994ZM45.1 46.1494C44.741 46.1494 44.45 46.4404 44.45 46.7994C44.45 47.1584 44.741 47.4494 45.1 47.4494H48.6C48.9589 47.4494 49.25 47.1584 49.25 46.7994C49.25 46.4404 48.9589 46.1494 48.6 46.1494H45.1ZM59 13.1494C58.641 13.1494 58.35 13.4404 58.35 13.7994V24.1994C58.35 24.5584 58.641 24.8494 59 24.8494H78.1C78.459 24.8494 78.75 24.5584 78.75 24.1994V13.7994C78.75 13.4404 78.459 13.1494 78.1 13.1494H59ZM59.65 23.5494V14.4494H77.45V23.5494H59.65ZM0.949951 13.7994C0.949951 13.4404 1.24097 13.1494 1.59995 13.1494H20.7C21.0589 13.1494 21.35 13.4404 21.35 13.7994V24.1994C21.35 24.5584 21.0589 24.8494 20.7 24.8494H1.59995C1.24097 24.8494 0.949951 24.5584 0.949951 24.1994V13.7994ZM2.24995 14.4494V23.5494H20.05V14.4494H2.24995Z" fill="#006FB9"/>
</svg>
