<svg width="100" height="89" viewBox="0 0 100 89" fill="none" xmlns="http://www.w3.org/2000/svg">
<path fill-rule="evenodd" clip-rule="evenodd" d="M52.459 0.170898C52.1 0.170898 51.809 0.461913 51.809 0.820898V14.65V17.7994V30.8072V33.9566V39.7071C51.809 39.7665 51.817 39.8242 51.832 39.8789H37.7858C37.8006 39.8244 37.8085 39.767 37.8085 39.7078V28.3432C37.8085 28.3091 37.8059 28.2755 37.8008 28.2428C39.2155 27.9486 40.2675 26.7002 40.2675 25.1939V24.2008H44.9454C45.1474 24.2008 45.3379 24.1069 45.4609 23.9467C45.584 23.7865 45.6255 23.5781 45.5734 23.383L41.475 8.04761C41.399 7.76324 41.1414 7.56543 40.847 7.56543H33.6066C33.3102 7.56543 33.0514 7.7659 32.9773 8.05285L29.0155 23.3882C28.9652 23.5829 29.0078 23.7899 29.131 23.9488C29.2541 24.1078 29.4438 24.2008 29.6448 24.2008H34.0724C34.0574 24.2554 34.0495 24.313 34.0495 24.3723V25.1939C34.0495 26.7002 35.1015 27.9486 36.5162 28.2428C36.5111 28.2755 36.5085 28.3091 36.5085 28.3432V39.7078C36.5085 39.767 36.5164 39.8244 36.5313 39.8789H30.3279C25.3227 39.8789 21.2079 44.0052 21.2079 49.0181V52.8254C20.4756 52.7009 19.7091 52.6722 18.9273 52.7528C15.5097 53.053 12.634 55.5973 12.3306 59.0944L12.3304 59.0968C12.0397 62.5936 14.5157 65.4711 17.9293 66.258V79.6891C17.9293 81.0091 18.579 82.215 19.5686 82.9946V85.0291C19.5686 86.5937 20.7898 88.0068 22.541 88.0068H22.8142C24.3789 88.0068 25.7866 86.7807 25.7866 85.0291V83.2491C25.7866 83.1394 25.7594 83.036 25.7114 82.9453C25.9404 82.7581 26.1504 82.5478 26.3372 82.3183C26.4275 82.3658 26.5303 82.3926 26.6394 82.3926H85.5191C85.6282 82.3926 85.731 82.3658 85.8213 82.3183C86.0247 82.5681 86.2555 82.7953 86.5085 82.9946V85.0291C86.5085 86.5937 87.7297 88.0068 89.4809 88.0068H89.7541C91.3188 88.0068 92.7265 86.7807 92.7265 85.0291V83.2491C92.7265 83.1394 92.6993 83.036 92.6513 82.9453C93.6063 82.1647 94.2293 80.9816 94.2293 79.6891V66.258C97.6428 65.4711 100.119 62.5936 99.8281 59.0968L99.8279 59.0944C99.6072 56.5507 98.0257 54.5112 95.8645 53.4726C95.8658 53.4609 95.8668 53.4492 95.8675 53.4374C95.8682 53.4248 95.8686 53.4121 95.8686 53.3994V33.9566V30.8072V17.7994V14.65V0.820898C95.8686 0.461913 95.5776 0.170898 95.2186 0.170898H52.459ZM94.5686 33.3066V31.4572H53.109V33.3066H94.5686ZM53.109 34.6066H94.5686V52.9906C94.1357 52.8732 93.6883 52.7929 93.2312 52.7528C92.4494 52.6722 91.6829 52.7009 90.9506 52.8254V49.0181C90.9506 44.0052 86.8358 39.8789 81.8306 39.8789H55.6011H53.0861C53.101 39.8242 53.109 39.7665 53.109 39.7071V34.6066ZM53.109 30.1572H74.495C73.2585 28.5935 72.6097 26.925 72.2693 25.5752C72.0629 24.7566 71.9683 24.0493 71.9253 23.5437C71.9038 23.2905 71.8952 23.0871 71.892 22.9446C71.8903 22.8733 71.8901 22.8171 71.8903 22.7775C71.8904 22.7577 71.8906 22.742 71.8908 22.7306L71.8911 22.7167L71.8912 22.7123L71.8913 22.7107L71.8913 22.71C71.8913 22.7097 71.8913 22.7095 72.541 22.7291L71.8913 22.7095C71.9019 22.3583 72.1897 22.0791 72.541 22.0791H84.6995C85.0508 22.0791 85.3385 22.3583 85.3492 22.7095L84.6995 22.7291C85.3492 22.7095 85.3492 22.7097 85.3492 22.71L85.3492 22.7107L85.3492 22.7123L85.3494 22.7167L85.3496 22.7306C85.3498 22.742 85.3501 22.7577 85.3502 22.7775C85.3503 22.8171 85.3501 22.8733 85.3485 22.9446C85.3453 23.0871 85.3366 23.2905 85.3151 23.5437C85.2721 24.0493 85.1776 24.7566 84.9711 25.5752C84.6307 26.925 83.9819 28.5935 82.7454 30.1572H94.5686V18.4494H53.109V30.1572ZM73.5299 25.2573C73.8989 26.7208 74.6604 28.5639 76.226 30.1572H81.0144C82.58 28.5639 83.3415 26.7208 83.7106 25.2573C83.8969 24.5184 83.9817 23.882 84.0198 23.4335L84.0243 23.3791H73.2162L73.2207 23.4335C73.2588 23.882 73.3435 24.5184 73.5299 25.2573ZM94.5686 17.1494V15.3H53.109V17.1494H94.5686ZM53.109 14H94.5686V1.4709H53.109V14ZM35.3495 24.3723C35.3495 24.313 35.3415 24.2554 35.3266 24.2008H38.9675V25.1939C38.9675 26.2055 38.1643 27.0085 37.1585 27.0085C36.1528 27.0085 35.3495 26.2055 35.3495 25.1939V24.3723ZM39.6175 22.9008L39.6245 22.9008H44.0989L40.3479 8.86543H34.11L30.4841 22.9008H39.6106L39.6175 22.9008ZM22.5079 49.0181V53.1578C25.1246 54.0632 27.0709 56.251 27.2873 58.962C27.2878 58.9686 27.2883 58.9753 27.2886 58.982L27.2892 59.0012L27.2894 59.0137V68.332C28.0108 67.6664 28.9789 67.2635 30.0547 67.2635H54.974C54.9591 67.2089 54.9511 67.1514 54.9511 67.092V41.1789H30.3279C26.0435 41.1789 22.5079 44.7203 22.5079 49.0181ZM84.8712 58.962C85.0876 56.251 87.0339 54.0632 89.6506 53.1578V49.0181C89.6506 44.7203 86.1151 41.1789 81.8306 41.1789H56.2511V67.092C56.2511 67.1514 56.2432 67.2089 56.2282 67.2635H82.2405C83.2497 67.2635 84.1642 67.6181 84.8691 68.2116V59.0137C84.8691 58.9964 84.8698 58.9792 84.8712 58.962ZM86.3058 72.0212C86.3058 72.1715 86.2548 72.3098 86.1691 72.4199V79.6891C86.1691 81.2484 87.5189 82.5991 89.0711 82.5991H90.0273C91.5795 82.5991 92.9293 81.2484 92.9293 79.6891V65.7229C92.9293 65.4037 93.1611 65.1317 93.4763 65.0811C96.6145 64.5779 98.7724 62.0964 98.5327 59.2056C98.2893 56.4067 95.9767 54.297 93.113 54.0474L93.1024 54.0465L93.1024 54.0464C89.4439 53.667 86.4228 56.0593 86.1691 59.0404V70.2702C86.2583 70.6093 86.3058 70.9666 86.3058 71.3366V72.0212ZM82.2405 68.5635C83.4845 68.5635 84.5107 69.3432 84.8691 70.4555V72.2149C84.8151 72.2003 84.7582 72.1925 84.6995 72.1925H27.459C27.4003 72.1925 27.3435 72.2003 27.2894 72.2149V72.0212V71.3366C27.2894 69.7773 28.5025 68.5635 30.0547 68.5635H82.2405ZM25.9894 71.3366V72.0212V79.6891C25.9894 81.2484 24.6396 82.5991 23.0875 82.5991H22.1312C20.579 82.5991 19.2293 81.2484 19.2293 79.6891V65.7229C19.2293 65.4037 18.9974 65.1317 18.6822 65.0811C15.544 64.5779 13.3861 62.0964 13.6258 59.2056C13.8692 56.4067 16.1818 54.297 19.0455 54.0474L19.0455 54.0475L19.0561 54.0464C22.7146 53.667 25.7357 56.0593 25.9894 59.0404V71.3366ZM27.2894 73.4702V79.6891C27.2894 80.1779 27.2003 80.651 27.0378 81.0926H85.1207C84.9582 80.651 84.8691 80.1779 84.8691 79.6891V73.4702C84.8151 73.4848 84.7582 73.4925 84.6995 73.4925H27.459C27.4003 73.4925 27.3435 73.4848 27.2894 73.4702ZM87.8085 85.0291V83.6955C88.2091 83.8274 88.6337 83.8991 89.0711 83.8991H90.0273C90.5148 83.8991 90.9864 83.8101 91.4265 83.6478V85.0291C91.4265 86.016 90.6485 86.7068 89.7541 86.7068H89.4809C88.4999 86.7068 87.8085 85.9291 87.8085 85.0291ZM24.4866 83.6478C24.0465 83.8101 23.5749 83.8991 23.0875 83.8991H22.1312C21.6938 83.8991 21.2692 83.8274 20.8686 83.6954V85.0291C20.8686 85.9291 21.56 86.7068 22.541 86.7068H22.8142C23.7086 86.7068 24.4866 86.016 24.4866 85.0291V83.6478ZM72.541 43.0282C72.182 43.0282 71.891 43.3192 71.891 43.6782C71.891 44.0372 72.182 44.3282 72.541 44.3282H81.8306C83.9293 44.3282 85.5522 45.9527 85.5522 48.0597C85.5522 48.4187 85.8432 48.7097 86.2022 48.7097C86.5612 48.7097 86.8522 48.4187 86.8522 48.0597C86.8522 45.2375 84.65 43.0282 81.8306 43.0282H72.541ZM0.819683 73.0146C0.626236 73.0146 0.44284 73.1008 0.319352 73.2497C0.195863 73.3986 0.145115 73.5948 0.180903 73.7849L2.91314 88.2988C2.97098 88.606 3.23931 88.8285 3.55192 88.8285H11.7486C12.0613 88.8285 12.3296 88.606 12.3874 88.2988L15.1197 73.7849C15.1555 73.5948 15.1047 73.3986 14.9812 73.2497C14.8577 73.1008 14.6743 73.0146 14.4809 73.0146H7.83828C7.82116 72.845 7.80049 72.6273 7.77817 72.365C7.75905 72.1402 7.73873 71.8828 7.71841 71.5948C7.67492 70.9786 7.63143 70.2226 7.59971 69.3484C7.5066 66.7819 7.5151 63.2009 7.92136 59.1461C8.36304 54.7377 9.27241 49.7944 11.0174 44.993C16.7308 42.4903 19.9719 37.963 21.7812 34.0771C22.6994 32.105 23.2542 30.2877 23.5799 28.9622C23.7429 28.299 23.8489 27.7573 23.9144 27.379C23.9472 27.1899 23.9699 27.0414 23.9845 26.939C23.9918 26.8877 23.9971 26.848 24.0007 26.8203L24.0048 26.788L24.0059 26.7788L24.0062 26.776L24.0063 26.7751C24.0063 26.7747 24.0064 26.7744 23.3607 26.6998L24.0064 26.7744C24.0296 26.5731 23.9577 26.3725 23.8118 26.2318C23.6659 26.0912 23.4628 26.0266 23.2624 26.0573C19.1258 26.6897 16.184 28.157 14.1158 30.0402C12.0497 31.9216 10.894 34.1828 10.2703 36.3438C9.64782 38.5007 9.55198 40.568 9.60919 42.0896C9.63785 42.8521 9.70515 43.4823 9.76577 43.9244C9.79442 44.1332 9.82162 44.3004 9.84264 44.4201C8.74581 47.4115 7.96994 50.4482 7.4273 53.3726C7.39321 53.5563 7.36005 53.7395 7.32778 53.9223L7.31138 53.8924C7.02874 53.3751 6.65828 52.6245 6.31235 51.6999C6.118 51.1805 5.93233 50.6086 5.7743 49.9945C5.78408 49.9783 5.79593 49.9585 5.80972 49.9351C5.85074 49.8656 5.9089 49.7648 5.98039 49.6348C6.12334 49.3749 6.31988 48.9979 6.5394 48.5214C6.97793 47.5694 7.51105 46.2139 7.89036 44.596C8.6485 41.3621 8.80075 37.0334 6.29707 32.8033C6.14789 32.5513 5.84857 32.4301 5.56608 32.5074C5.40336 32.552 5.26939 32.656 5.18502 32.7922C5.17678 32.8024 5.16524 32.8164 5.14941 32.8354L5.09403 32.9017C5.04317 32.9624 4.9772 33.0411 4.90388 33.1303C4.69131 33.3889 4.39523 33.7617 4.06411 34.2323C3.40361 35.171 2.59695 36.5088 2.0332 38.1232C0.926589 41.2921 0.772269 45.5059 4.38236 49.764C4.57804 50.6441 4.83041 51.4489 5.09478 52.1555C5.46606 53.1478 5.86405 53.9547 6.17055 54.5157C6.32393 54.7964 6.45478 55.0162 6.54846 55.1676C6.59531 55.2433 6.63291 55.302 6.65943 55.3426C6.67269 55.3629 6.68319 55.3788 6.69069 55.39L6.69967 55.4034L6.70242 55.4074L6.70335 55.4088L6.70371 55.4093C6.70384 55.4095 6.70397 55.4097 7.12786 55.1197L6.70399 55.4097C6.78943 55.5346 6.91072 55.6203 7.04464 55.6625C6.87371 56.8088 6.73667 57.9302 6.62783 59.0165C6.21442 63.1428 6.20584 66.7845 6.30057 69.3955C6.34795 70.7014 6.42122 71.7507 6.48285 72.4752C6.50044 72.6819 6.51709 72.8623 6.53192 73.0146H0.819683ZM5.38781 47.9138C5.30232 47.1578 5.27367 46.3639 5.32651 45.5453C5.34682 45.2307 5.37916 44.9125 5.42493 44.5913C5.47559 44.2359 5.22855 43.9068 4.87315 43.8561C4.51776 43.8055 4.18859 44.0525 4.13794 44.4079C4.01036 45.303 3.97747 46.1745 4.01364 47.0092C2.19131 43.862 2.4415 40.8971 3.26052 38.5517C3.77259 37.0854 4.51135 35.8558 5.12732 34.9803C5.31071 34.7197 5.48262 34.4912 5.63371 34.298C7.43561 37.8786 7.28395 41.4871 6.62467 44.2993C6.27804 45.7778 5.79313 47.0252 5.38781 47.9138ZM10.9004 41.7863C10.8668 40.3863 10.9798 38.5738 11.5193 36.7043C12.091 34.7233 13.1382 32.6886 14.9911 31.0014C16.699 29.4462 19.1245 28.1563 22.5717 27.495C22.5113 27.8096 22.4285 28.2003 22.3175 28.652C22.0071 29.9152 21.4776 31.6494 20.6027 33.5283C19.0111 36.9467 16.2943 40.8098 11.7029 43.2219C13.0267 40.0048 14.7536 36.8909 16.9975 34.0898C17.1423 33.9091 17.2892 33.7297 17.4382 33.5517C17.6687 33.2765 17.6324 32.8665 17.3572 32.636C17.082 32.4056 16.672 32.4418 16.4415 32.7171C14.1127 35.4982 12.3028 38.5882 10.9004 41.7863ZM4.09098 87.5285L1.60346 74.3147H13.6971L11.2096 87.5285H4.09098Z" fill="#006FB9"/>
</svg>
