<svg width="245" height="59" viewBox="0 0 245 59" fill="none" xmlns="http://www.w3.org/2000/svg">
<path d="M225.343 51.5615V35.9944L233.247 6.79895H244.625L233.067 51.5615H225.343ZM225.343 18.2993H226.564L229.546 6.78949H225.343V18.2993ZM225.343 6.78949V18.2993H214.278L212.697 23.8509H225.163L222.276 34.6798H209.905L208.598 40.099H220.885L217.903 51.5615H197.078V40.7799L206.109 6.79895H225.343V6.78949ZM225.343 35.9944L221.188 51.5615H225.343V35.9944ZM197.069 32.6464C198.063 30.3861 198.782 27.9082 199.369 25.2506C200.231 20.2003 200.543 13.8354 197.069 9.94831V32.6464ZM197.069 9.94831V32.6464C195.763 35.6255 194.002 38.2453 191.56 40.3638C189.705 41.8486 187.13 43.2105 184.195 43.2105H183.741V33.195C184.148 32.7883 184.461 32.3343 184.83 31.8898C186.865 29.0904 189.705 20.834 188.398 14.7906C188.218 13.8921 187.045 13.4854 185.871 13.4854H184.423L183.741 15.9633V6.79895H191.418C193.188 6.78949 195.536 8.15138 197.069 9.94831ZM197.069 40.7705L194.22 51.5521H197.069V40.7705ZM183.751 6.78949V15.9539L178.828 34.6798H180.229C181.905 34.6798 182.937 34.0461 183.751 33.195V43.2105H176.613L174.313 51.5615H162.434L174.313 6.79895H183.751V6.78949ZM146.673 47.0503V38.8789H149.428L148.708 29.3079L146.673 33.3652V12.029L149.655 6.75166L160.001 6.79895L161.127 51.5615H150.157L149.749 47.0503H146.673ZM146.673 12.029V33.3747L143.919 38.8789H146.673V47.0503H139.848L137.548 51.5615H129.057V43.1727L146.673 12.029ZM129.057 24.6643L133.8 6.83678H129.057V24.6643ZM50.4156 58.5979C58.187 57.8319 68.3059 52.1857 67.577 40.8177C67.2646 35.8998 64.6426 30.9346 62.7021 26.8773L50.4156 0.661V16.7672L57.9125 32.6937C59.0862 35.2662 60.0328 37.9332 60.0328 40.7705C60.0328 46.776 55.423 50.6536 50.4156 51.4196V58.5979ZM129.057 6.83678V24.6643L121.967 51.6088H110.353L115.143 30.9441L104.077 51.6088H96.76L95.8608 30.9441L90.3517 51.6088C89.4525 51.6088 81.8609 51.6561 78.6993 51.6561L90.4842 6.84624H103.765L106.245 28.7783L120.339 6.84624H129.057V6.83678ZM129.057 43.1632L124.362 51.5521H129.057V43.1632ZM50.4156 38.198V27.511L51.8638 26.6976L50.4156 25.8843V24.5791L52.7631 25.8464V36.6753L50.4156 38.198ZM48.5224 58.6925C49.1566 58.6925 49.7908 58.6925 50.4156 58.5979V51.4196C49.7813 51.5142 49.1471 51.5521 48.5224 51.5521H34.0208V58.683H48.5224V58.6925ZM50.4156 0.661L50.1032 0.0273438H34.0208V7.11105H45.853L50.4156 16.7672V0.661ZM50.4156 24.5697V25.8748L48.9294 25.0142V28.3527L50.4156 27.4921V38.1885L48.9294 39.1343L48.8821 45.0926L38.678 50.8711L34.0303 48.2136V46.9084L38.7726 49.6133L47.7557 44.4683L47.7083 33.8664L43.4582 31.4737L47.7462 28.9485V18.3939L38.7158 13.2963L34.0208 16.0011V14.7338L38.7632 11.9817L48.9294 17.8075V23.7185L50.4156 24.5697ZM34.0208 36.7983L38.4887 39.3707L47.112 34.4528L42.682 31.9276L38.659 34.2258V23.5766L34.0113 20.9569V26.0545L34.106 26.1491L34.0113 26.1964V36.7983H34.0208ZM34.0208 0.0273438H30.9539V7.11105H34.0208V0.0273438ZM30.9539 58.6925H34.0208V51.5615H30.9539V58.6925ZM34.0208 14.7338V16.0011L30.9539 17.7602V13.5138L33.5286 14.9608L34.0208 14.7338ZM34.0208 20.9664V26.064L30.9539 24.39V19.2451L34.0208 20.9664ZM34.0208 26.1964V36.7983L30.9539 35.0392V27.9082L34.0208 26.1964ZM34.0208 46.9084V48.2136L33.4813 47.9014L30.9539 49.3012V48.0339L32.3075 47.2678L30.9539 46.5017V45.1493L34.0208 46.9084ZM30.9539 0.0273438H22.5577V7.11105H30.9539V0.0273438ZM22.5577 58.6925H30.9539V51.5615H22.5577V58.6925ZM30.9539 13.5138V17.7602L29.6003 18.5263V23.5766L25.2176 21.0515L22.5483 22.5363V21.1839L23.9492 20.4178L22.5483 19.6518V16.9469L29.7707 12.8423L30.9539 13.5138ZM30.9539 19.2451L30.367 18.933V24.0779L30.9539 24.39V19.2451ZM30.9539 27.9082V35.0392L29.6003 34.2731V38.425L24.9053 41.1298V31.3413L30.9539 27.9082ZM30.9539 45.1493L29.6476 44.4305V39.3802L25.1324 41.9526L22.5577 40.4205V46.0194L29.6476 49.9916L30.9539 49.3106V48.0433L29.6003 48.7621V45.7357L30.9539 46.5017V45.1493ZM22.5577 0.0273438H9.90199C8.59571 0.0273438 8.50105 1.24737 9.31511 2.19312L12.4767 7.11105C13.783 9.04985 13.3381 10.5441 12.8364 11.6223L2.9541 32.5613C2.49974 33.6395 2.14004 34.3677 1.68569 35.4459C0.871628 37.1577 0.597121 38.9641 0.511929 40.8177C0.4646 40.8177 0.4646 40.865 0.4646 40.9123V43.1727C1.14614 52.0155 9.72214 58.6925 19.4814 58.6925H22.5483V51.5615H19.434C14.1995 51.5615 8.00883 47.9109 8.00883 40.7799C8.00883 37.4414 9.40977 35.7296 10.6309 32.5708L20.3901 11.9911C21.2041 10.4117 19.8505 8.37836 19.4435 7.1205H22.5577V0.0273438ZM22.5577 16.9469V19.6518L21.1568 18.8857V21.9972L22.5577 21.1839V22.5363L15.8276 26.3761V36.5335L22.5577 40.4111V46.0099L19.9357 44.5629V40.2314L14.6065 37.1671V25.7424L19.983 22.6782V18.4317L22.5577 16.9469Z" fill="white"/>
</svg>
