<?xml version="1.0" encoding="UTF-8" standalone="no"?>
<svg
   xmlns:dc="http://purl.org/dc/elements/1.1/"
   xmlns:cc="http://creativecommons.org/ns#"
   xmlns:rdf="http://www.w3.org/1999/02/22-rdf-syntax-ns#"
   xmlns:svg="http://www.w3.org/2000/svg"
   xmlns="http://www.w3.org/2000/svg"
   xmlns:sodipodi="http://sodipodi.sourceforge.net/DTD/sodipodi-0.dtd"
   xmlns:inkscape="http://www.inkscape.org/namespaces/inkscape"
   version="1.1"
   id="svg2"
   xml:space="preserve"
   width="91"
   height="91"
   viewBox="0 0 91.000003 91.000003"
   sodipodi:docname="skirting-icon.svg"
   inkscape:version="1.0.1 (3bc2e813f5, 2020-09-07)"><metadata
     id="metadata8"><rdf:RDF><cc:Work
         rdf:about=""><dc:format>image/svg+xml</dc:format><dc:type
           rdf:resource="http://purl.org/dc/dcmitype/StillImage" /><dc:title></dc:title></cc:Work></rdf:RDF></metadata><defs
     id="defs6"><clipPath
       clipPathUnits="userSpaceOnUse"
       id="clipPath18"><path
         d="m 11.615,25.786 h 96.791 V 87.751 H 11.615 Z"
         id="path16" /></clipPath><clipPath
       clipPathUnits="userSpaceOnUse"
       id="clipPath52"><path
         d="m 28.437,45.061 h 63.146 v 42.38 H 28.437 Z"
         id="path50" /></clipPath><clipPath
       clipPathUnits="userSpaceOnUse"
       id="clipPath84"><path
         d="m 28.437,45.061 h 63.146 v 42.38 H 28.437 Z"
         id="path82" /></clipPath><clipPath
       clipPathUnits="userSpaceOnUse"
       id="clipPath108"><path
         d="m 28.437,45.061 h 63.146 v 42.38 H 28.437 Z"
         id="path106" /></clipPath><clipPath
       clipPathUnits="userSpaceOnUse"
       id="clipPath132"><path
         d="m 28.437,45.061 h 63.146 v 42.38 H 28.437 Z"
         id="path130" /></clipPath><clipPath
       clipPathUnits="userSpaceOnUse"
       id="clipPath156"><path
         d="m 28.437,45.061 h 63.146 v 42.38 H 28.437 Z"
         id="path154" /></clipPath><clipPath
       clipPathUnits="userSpaceOnUse"
       id="clipPath176"><path
         d="m 28.437,45.061 h 63.146 v 42.38 H 28.437 Z"
         id="path174" /></clipPath><clipPath
       clipPathUnits="userSpaceOnUse"
       id="clipPath200"><path
         d="m 28.437,45.061 h 63.146 v 42.38 H 28.437 Z"
         id="path198" /></clipPath><clipPath
       clipPathUnits="userSpaceOnUse"
       id="clipPath224"><path
         d="m 28.437,45.061 h 63.146 v 42.38 H 28.437 Z"
         id="path222" /></clipPath><clipPath
       clipPathUnits="userSpaceOnUse"
       id="clipPath244"><path
         d="m 11.615,25.786 h 96.791 V 87.751 H 11.615 Z"
         id="path242" /></clipPath><clipPath
       clipPathUnits="userSpaceOnUse"
       id="clipPath256"><path
         d="m 11.615,25.786 h 96.791 V 87.751 H 11.615 Z"
         id="path254" /></clipPath><clipPath
       clipPathUnits="userSpaceOnUse"
       id="clipPath288"><path
         d="m 11.615,25.786 h 96.791 V 87.751 H 11.615 Z"
         id="path286" /></clipPath></defs><sodipodi:namedview
     pagecolor="#ffffff"
     bordercolor="#666666"
     borderopacity="1"
     objecttolerance="10"
     gridtolerance="10"
     guidetolerance="10"
     inkscape:pageopacity="0"
     inkscape:pageshadow="2"
     inkscape:window-width="1920"
     inkscape:window-height="1017"
     id="namedview4"
     showgrid="false"
     inkscape:zoom="3.7863219"
     inkscape:cx="53.488308"
     inkscape:cy="81.682896"
     inkscape:window-x="-8"
     inkscape:window-y="-8"
     inkscape:window-maximized="1"
     inkscape:current-layer="g10" /><g
     id="g10"
     inkscape:groupmode="layer"
     inkscape:label="Icon-Fartuk"
     transform="matrix(1.3333333,0,0,-1.3333333,0,158.74)"><g
       id="g12"
       transform="matrix(0.69225332,0,0,0.69225332,-7.3200003,41.861032)"><g
         id="g14"
         clip-path="url(#clipPath18)"><g
           id="g20"
           transform="translate(108.085,32.5391)"><path
             d="M 0,0 -16.501,12.521 H -79.647 L -96.148,0"
             style="fill:none;stroke:#007ac2;stroke-width:0.644;stroke-linecap:round;stroke-linejoin:round;stroke-miterlimit:4;stroke-dasharray:none;stroke-opacity:1"
             id="path22" /></g></g></g><path
       d="M 12.365607,102.39235 H 56.078635 V 73.054659 H 12.365607 Z"
       style="fill:#ffffff;fill-opacity:1;fill-rule:nonzero;stroke:none;stroke-width:0.692253"
       id="path24" /><g
       id="g26"
       transform="matrix(0.69225332,0,0,0.69225332,12.365953,76.627862)"><path
         d="M 0,0 H 63.036"
         style="fill:none;stroke:#007ac2;stroke-width:0.206;stroke-linecap:butt;stroke-linejoin:miter;stroke-miterlimit:4;stroke-dasharray:none;stroke-opacity:1"
         id="path28" /></g><g
       id="g30"
       transform="matrix(0.69225332,0,0,0.69225332,12.365953,84.035734)"><path
         d="M 0,0 H 63.036"
         style="fill:none;stroke:#007ac2;stroke-width:0.206;stroke-linecap:butt;stroke-linejoin:miter;stroke-miterlimit:4;stroke-dasharray:none;stroke-opacity:1"
         id="path32" /></g><g
       id="g34"
       transform="matrix(0.69225332,0,0,0.69225332,12.365953,91.444021)"><path
         d="M 0,0 H 63.036"
         style="fill:none;stroke:#007ac2;stroke-width:0.206;stroke-linecap:butt;stroke-linejoin:miter;stroke-miterlimit:4;stroke-dasharray:none;stroke-opacity:1"
         id="path36" /></g><g
       id="g38"
       transform="matrix(0.69225332,0,0,0.69225332,12.365953,95.147646)"><path
         d="M 0,0 H 63.036"
         style="fill:none;stroke:#007ac2;stroke-width:0.206;stroke-linecap:butt;stroke-linejoin:miter;stroke-miterlimit:4;stroke-dasharray:none;stroke-opacity:1"
         id="path40" /></g><g
       id="g42"
       transform="matrix(0.69225332,0,0,0.69225332,12.365953,98.851623)"><path
         d="M 0,0 H 63.036"
         style="fill:none;stroke:#007ac2;stroke-width:0.206;stroke-linecap:butt;stroke-linejoin:miter;stroke-miterlimit:4;stroke-dasharray:none;stroke-opacity:1"
         id="path44" /></g><g
       id="g46"
       transform="matrix(0.69225332,0,0,0.69225332,-7.3200003,41.861032)"><g
         id="g48"
         clip-path="url(#clipPath52)"><g
           id="g54"
           transform="translate(28.4375,87.6772)"><path
             d="M 0,0 H 63.036"
             style="fill:none;stroke:#007ac2;stroke-width:0.206;stroke-linecap:butt;stroke-linejoin:miter;stroke-miterlimit:4;stroke-dasharray:none;stroke-opacity:1"
             id="path56" /></g><g
           id="g58"
           transform="translate(28.4375,44.8711)"><path
             d="M 0,0 H 63.036"
             style="fill:none;stroke:#007ac2;stroke-width:0.206;stroke-linecap:butt;stroke-linejoin:miter;stroke-miterlimit:4;stroke-dasharray:none;stroke-opacity:1"
             id="path60" /></g></g></g><g
       id="g62"
       transform="matrix(0.69225332,0,0,0.69225332,12.365953,80.331764)"><path
         d="M 0,0 H 63.036"
         style="fill:none;stroke:#007ac2;stroke-width:0.206;stroke-linecap:butt;stroke-linejoin:miter;stroke-miterlimit:4;stroke-dasharray:none;stroke-opacity:1"
         id="path64" /></g><g
       id="g66"
       transform="matrix(0.69225332,0,0,0.69225332,12.365953,87.739358)"><path
         d="M 0,0 H 63.036"
         style="fill:none;stroke:#007ac2;stroke-width:0.206;stroke-linecap:butt;stroke-linejoin:miter;stroke-miterlimit:4;stroke-dasharray:none;stroke-opacity:1"
         id="path68" /></g><g
       id="g70"
       transform="matrix(0.69225332,0,0,0.69225332,15.26338,87.791762)"><path
         d="M 0,0 V -5.517"
         style="fill:none;stroke:#007ac2;stroke-width:0.206;stroke-linecap:butt;stroke-linejoin:miter;stroke-miterlimit:4;stroke-dasharray:none;stroke-opacity:1"
         id="path72" /></g><g
       id="g74"
       transform="matrix(0.69225332,0,0,0.69225332,15.26338,80.396697)"><path
         d="M 0,0 V -5.517"
         style="fill:none;stroke:#007ac2;stroke-width:0.206;stroke-linecap:butt;stroke-linejoin:miter;stroke-miterlimit:4;stroke-dasharray:none;stroke-opacity:1"
         id="path76" /></g><g
       id="g78"
       transform="matrix(0.69225332,0,0,0.69225332,-7.3200003,41.861032)"><g
         id="g80"
         clip-path="url(#clipPath84)"><g
           id="g86"
           transform="translate(32.623,87.7148)"><path
             d="M 0,0 V -5.517"
             style="fill:none;stroke:#007ac2;stroke-width:0.206;stroke-linecap:butt;stroke-linejoin:miter;stroke-miterlimit:4;stroke-dasharray:none;stroke-opacity:1"
             id="path88" /></g></g></g><g
       id="g90"
       transform="matrix(0.69225332,0,0,0.69225332,15.26338,95.186827)"><path
         d="M 0,0 V -5.517"
         style="fill:none;stroke:#007ac2;stroke-width:0.206;stroke-linecap:butt;stroke-linejoin:miter;stroke-miterlimit:4;stroke-dasharray:none;stroke-opacity:1"
         id="path92" /></g><g
       id="g94"
       transform="matrix(0.69225332,0,0,0.69225332,27.877758,87.791762)"><path
         d="M 0,0 V -5.517"
         style="fill:none;stroke:#007ac2;stroke-width:0.206;stroke-linecap:butt;stroke-linejoin:miter;stroke-miterlimit:4;stroke-dasharray:none;stroke-opacity:1"
         id="path96" /></g><g
       id="g98"
       transform="matrix(0.69225332,0,0,0.69225332,27.877758,80.396697)"><path
         d="M 0,0 V -5.517"
         style="fill:none;stroke:#007ac2;stroke-width:0.206;stroke-linecap:butt;stroke-linejoin:miter;stroke-miterlimit:4;stroke-dasharray:none;stroke-opacity:1"
         id="path100" /></g><g
       id="g102"
       transform="matrix(0.69225332,0,0,0.69225332,-7.3200003,41.861032)"><g
         id="g104"
         clip-path="url(#clipPath108)"><g
           id="g110"
           transform="translate(50.8452,87.7148)"><path
             d="M 0,0 V -5.517"
             style="fill:none;stroke:#007ac2;stroke-width:0.206;stroke-linecap:butt;stroke-linejoin:miter;stroke-miterlimit:4;stroke-dasharray:none;stroke-opacity:1"
             id="path112" /></g></g></g><g
       id="g114"
       transform="matrix(0.69225332,0,0,0.69225332,27.877758,95.186827)"><path
         d="M 0,0 V -5.517"
         style="fill:none;stroke:#007ac2;stroke-width:0.206;stroke-linecap:butt;stroke-linejoin:miter;stroke-miterlimit:4;stroke-dasharray:none;stroke-opacity:1"
         id="path116" /></g><g
       id="g118"
       transform="matrix(0.69225332,0,0,0.69225332,40.492829,87.791762)"><path
         d="M 0,0 V -5.517"
         style="fill:none;stroke:#007ac2;stroke-width:0.206;stroke-linecap:butt;stroke-linejoin:miter;stroke-miterlimit:4;stroke-dasharray:none;stroke-opacity:1"
         id="path120" /></g><g
       id="g122"
       transform="matrix(0.69225332,0,0,0.69225332,40.492829,80.396697)"><path
         d="M 0,0 V -5.517"
         style="fill:none;stroke:#007ac2;stroke-width:0.206;stroke-linecap:butt;stroke-linejoin:miter;stroke-miterlimit:4;stroke-dasharray:none;stroke-opacity:1"
         id="path124" /></g><g
       id="g126"
       transform="matrix(0.69225332,0,0,0.69225332,-7.3200003,41.861032)"><g
         id="g128"
         clip-path="url(#clipPath132)"><g
           id="g134"
           transform="translate(69.0684,87.7148)"><path
             d="M 0,0 V -5.517"
             style="fill:none;stroke:#007ac2;stroke-width:0.206;stroke-linecap:butt;stroke-linejoin:miter;stroke-miterlimit:4;stroke-dasharray:none;stroke-opacity:1"
             id="path136" /></g></g></g><g
       id="g138"
       transform="matrix(0.69225332,0,0,0.69225332,40.492829,95.186827)"><path
         d="M 0,0 V -5.517"
         style="fill:none;stroke:#007ac2;stroke-width:0.206;stroke-linecap:butt;stroke-linejoin:miter;stroke-miterlimit:4;stroke-dasharray:none;stroke-opacity:1"
         id="path140" /></g><g
       id="g142"
       transform="matrix(0.69225332,0,0,0.69225332,53.107484,87.791762)"><path
         d="M 0,0 V -5.517"
         style="fill:none;stroke:#007ac2;stroke-width:0.206;stroke-linecap:butt;stroke-linejoin:miter;stroke-miterlimit:4;stroke-dasharray:none;stroke-opacity:1"
         id="path144" /></g><g
       id="g146"
       transform="matrix(0.69225332,0,0,0.69225332,53.107484,80.396697)"><path
         d="M 0,0 V -5.517"
         style="fill:none;stroke:#007ac2;stroke-width:0.206;stroke-linecap:butt;stroke-linejoin:miter;stroke-miterlimit:4;stroke-dasharray:none;stroke-opacity:1"
         id="path148" /></g><g
       id="g150"
       transform="matrix(0.69225332,0,0,0.69225332,-7.3200003,41.861032)"><g
         id="g152"
         clip-path="url(#clipPath156)"><g
           id="g158"
           transform="translate(87.291,87.7148)"><path
             d="M 0,0 V -5.517"
             style="fill:none;stroke:#007ac2;stroke-width:0.206;stroke-linecap:butt;stroke-linejoin:miter;stroke-miterlimit:4;stroke-dasharray:none;stroke-opacity:1"
             id="path160" /></g></g></g><g
       id="g162"
       transform="matrix(0.69225332,0,0,0.69225332,53.107484,95.186827)"><path
         d="M 0,0 V -5.517"
         style="fill:none;stroke:#007ac2;stroke-width:0.206;stroke-linecap:butt;stroke-linejoin:miter;stroke-miterlimit:4;stroke-dasharray:none;stroke-opacity:1"
         id="path164" /></g><g
       id="g166"
       transform="matrix(0.69225332,0,0,0.69225332,21.570777,84.058094)"><path
         d="M 0,0 V -5.518"
         style="fill:none;stroke:#007ac2;stroke-width:0.206;stroke-linecap:butt;stroke-linejoin:miter;stroke-miterlimit:4;stroke-dasharray:none;stroke-opacity:1"
         id="path168" /></g><g
       id="g170"
       transform="matrix(0.69225332,0,0,0.69225332,-7.3200003,41.861032)"><g
         id="g172"
         clip-path="url(#clipPath176)"><g
           id="g178"
           transform="translate(41.7344,50.2734)"><path
             d="M 0,0 V -5.518"
             style="fill:none;stroke:#007ac2;stroke-width:0.206;stroke-linecap:butt;stroke-linejoin:miter;stroke-miterlimit:4;stroke-dasharray:none;stroke-opacity:1"
             id="path180" /></g></g></g><g
       id="g182"
       transform="matrix(0.69225332,0,0,0.69225332,21.570777,98.848223)"><path
         d="M 0,0 V -5.518"
         style="fill:none;stroke:#007ac2;stroke-width:0.206;stroke-linecap:butt;stroke-linejoin:miter;stroke-miterlimit:4;stroke-dasharray:none;stroke-opacity:1"
         id="path184" /></g><g
       id="g186"
       transform="matrix(0.69225332,0,0,0.69225332,21.570777,91.453159)"><path
         d="M 0,0 V -5.518"
         style="fill:none;stroke:#007ac2;stroke-width:0.206;stroke-linecap:butt;stroke-linejoin:miter;stroke-miterlimit:4;stroke-dasharray:none;stroke-opacity:1"
         id="path188" /></g><g
       id="g190"
       transform="matrix(0.69225332,0,0,0.69225332,34.185432,84.058094)"><path
         d="M 0,0 V -5.518"
         style="fill:none;stroke:#007ac2;stroke-width:0.206;stroke-linecap:butt;stroke-linejoin:miter;stroke-miterlimit:4;stroke-dasharray:none;stroke-opacity:1"
         id="path192" /></g><g
       id="g194"
       transform="matrix(0.69225332,0,0,0.69225332,-7.3200003,41.861032)"><g
         id="g196"
         clip-path="url(#clipPath200)"><g
           id="g202"
           transform="translate(59.957,50.2734)"><path
             d="M 0,0 V -5.518"
             style="fill:none;stroke:#007ac2;stroke-width:0.206;stroke-linecap:butt;stroke-linejoin:miter;stroke-miterlimit:4;stroke-dasharray:none;stroke-opacity:1"
             id="path204" /></g></g></g><g
       id="g206"
       transform="matrix(0.69225332,0,0,0.69225332,34.185432,98.848223)"><path
         d="M 0,0 V -5.518"
         style="fill:none;stroke:#007ac2;stroke-width:0.206;stroke-linecap:butt;stroke-linejoin:miter;stroke-miterlimit:4;stroke-dasharray:none;stroke-opacity:1"
         id="path208" /></g><g
       id="g210"
       transform="matrix(0.69225332,0,0,0.69225332,34.185432,91.453159)"><path
         d="M 0,0 V -5.518"
         style="fill:none;stroke:#007ac2;stroke-width:0.206;stroke-linecap:butt;stroke-linejoin:miter;stroke-miterlimit:4;stroke-dasharray:none;stroke-opacity:1"
         id="path212" /></g><g
       id="g214"
       transform="matrix(0.69225332,0,0,0.69225332,46.799464,84.058094)"><path
         d="M 0,0 V -5.518"
         style="fill:none;stroke:#007ac2;stroke-width:0.206;stroke-linecap:butt;stroke-linejoin:miter;stroke-miterlimit:4;stroke-dasharray:none;stroke-opacity:1"
         id="path216" /></g><g
       id="g218"
       transform="matrix(0.69225332,0,0,0.69225332,-7.3200003,41.861032)"><g
         id="g220"
         clip-path="url(#clipPath224)"><g
           id="g226"
           transform="translate(78.1787,50.2734)"><path
             d="M 0,0 V -5.518"
             style="fill:none;stroke:#007ac2;stroke-width:0.206;stroke-linecap:butt;stroke-linejoin:miter;stroke-miterlimit:4;stroke-dasharray:none;stroke-opacity:1"
             id="path228" /></g></g></g><g
       id="g230"
       transform="matrix(0.69225332,0,0,0.69225332,46.799464,98.848223)"><path
         d="M 0,0 V -5.518"
         style="fill:none;stroke:#007ac2;stroke-width:0.206;stroke-linecap:butt;stroke-linejoin:miter;stroke-miterlimit:4;stroke-dasharray:none;stroke-opacity:1"
         id="path232" /></g><g
       id="g234"
       transform="matrix(0.69225332,0,0,0.69225332,46.799464,91.453159)"><path
         d="M 0,0 V -5.518"
         style="fill:none;stroke:#007ac2;stroke-width:0.206;stroke-linecap:butt;stroke-linejoin:miter;stroke-miterlimit:4;stroke-dasharray:none;stroke-opacity:1"
         id="path236" /></g><g
       id="g238"
       transform="matrix(0.69225332,0,0,0.69225332,-7.3200003,41.861032)"><g
         id="g240"
         clip-path="url(#clipPath244)"><path
           d="M 28.437,87.441 H 91.583 V 45.061 H 28.437 Z"
           style="fill:none;stroke:#007ac2;stroke-width:0.619;stroke-linecap:round;stroke-linejoin:round;stroke-miterlimit:4;stroke-dasharray:none;stroke-opacity:1"
           id="path246" /></g></g><path
       d="m 35.254963,96.685423 h 17.300102 v 0.44581 H 35.254963 Z"
       style="fill:none;stroke:#007ac2;stroke-width:0.445811;stroke-linecap:round;stroke-linejoin:round;stroke-miterlimit:4;stroke-dasharray:none;stroke-opacity:1"
       id="path248" /><g
       id="g250"
       transform="matrix(0.69225332,0,0,0.69225332,-7.3200003,41.861032)"><g
         id="g252"
         clip-path="url(#clipPath256)"><g
           id="g258"
           transform="translate(81.9766,57.0625)"><path
             d="m 0,0 v 20.223 c 0,0 0.269,3.206 -2.142,3.206"
             style="fill:none;stroke:#007ac2;stroke-width:0.619;stroke-linecap:butt;stroke-linejoin:miter;stroke-miterlimit:4;stroke-dasharray:none;stroke-opacity:1"
             id="path260" /></g><g
           id="g262"
           transform="translate(80.7051,60.0356)"><path
             d="m 0,0 c 0,0 -2.475,0 -2.475,-2.475 v -4.567 c 0,0 0,-2.475 2.475,-2.475 h 2.544 c 0,0 2.476,0 2.476,2.475 v 4.567 c 0,0 0,2.475 -2.476,2.475 z"
             style="fill:#ffffff;fill-opacity:1;fill-rule:nonzero;stroke:none"
             id="path264" /></g><g
           id="g266"
           transform="translate(80.7051,60.0356)"><path
             d="m 0,0 c 0,0 -2.475,0 -2.475,-2.475 v -4.567 c 0,0 0,-2.475 2.475,-2.475 h 2.544 c 0,0 2.476,0 2.476,2.475 v 4.567 c 0,0 0,2.475 -2.476,2.475 z"
             style="fill:none;stroke:#007ac2;stroke-width:0.619;stroke-linecap:butt;stroke-linejoin:miter;stroke-miterlimit:4;stroke-dasharray:none;stroke-opacity:1"
             id="path268" /></g></g></g><g
       id="g270"
       transform="matrix(0.69225332,0,0,0.69225332,48.639612,82.267926)"><path
         d="M 0,0 V -6.186"
         style="fill:none;stroke:#007ac2;stroke-width:0.619;stroke-linecap:butt;stroke-linejoin:miter;stroke-miterlimit:4;stroke-dasharray:none;stroke-opacity:1"
         id="path272" /></g><g
       id="g274"
       transform="matrix(0.69225332,0,0,0.69225332,49.436672,82.267926)"><path
         d="M 0,0 V -6.186"
         style="fill:none;stroke:#007ac2;stroke-width:0.619;stroke-linecap:butt;stroke-linejoin:miter;stroke-miterlimit:4;stroke-dasharray:none;stroke-opacity:1"
         id="path276" /></g><g
       id="g278"
       transform="matrix(0.69225332,0,0,0.69225332,50.289113,82.267926)"><path
         d="M 0,0 V -6.186"
         style="fill:none;stroke:#007ac2;stroke-width:0.619;stroke-linecap:butt;stroke-linejoin:miter;stroke-miterlimit:4;stroke-dasharray:none;stroke-opacity:1"
         id="path280" /></g><g
       id="g282"
       transform="matrix(0.69225332,0,0,0.69225332,-7.3200003,41.861032)"><g
         id="g284"
         clip-path="url(#clipPath288)"><g
           id="g290"
           transform="translate(67.0615,56.9287)"><path
             d="m 0,0 v 20.339 c 0,0 0.268,3.224 -2.143,3.224"
             style="fill:none;stroke:#007ac2;stroke-width:0.619;stroke-linecap:butt;stroke-linejoin:miter;stroke-miterlimit:4;stroke-dasharray:none;stroke-opacity:1"
             id="path292" /></g><g
           id="g294"
           transform="translate(64.5742,55.0918)"><path
             d="m 0,0 c 0,-3.068 1.234,-4.797 2.554,-4.797 1.679,0 2.743,1.729 2.743,4.797 0,3.069 -1.803,5.556 -2.743,5.556 C 1.613,5.556 0,3.069 0,0"
             style="fill:#ffffff;fill-opacity:1;fill-rule:nonzero;stroke:none"
             id="path296" /></g><g
           id="g298"
           transform="translate(64.5742,55.0918)"><path
             d="m 0,0 c 0,-3.068 1.234,-4.797 2.554,-4.797 1.679,0 2.743,1.729 2.743,4.797 0,3.069 -1.803,5.556 -2.743,5.556 C 1.613,5.556 0,3.069 0,0 Z"
             style="fill:none;stroke:#007ac2;stroke-width:0.619;stroke-linecap:butt;stroke-linejoin:miter;stroke-miterlimit:4;stroke-dasharray:none;stroke-opacity:1"
             id="path300" /></g><g
           id="g302"
           transform="translate(69.126,54.4404)"><path
             d="m 0,0 c 0,-2.256 2.488,-4.085 5.557,-4.085 3.068,0 5.555,1.829 5.555,4.085"
             style="fill:#ffffff;fill-opacity:1;fill-rule:nonzero;stroke:#007ac2;stroke-width:0.619;stroke-linecap:butt;stroke-linejoin:miter;stroke-miterlimit:4;stroke-dasharray:none;stroke-opacity:1"
             id="path304" /></g><g
           id="g306"
           transform="translate(74.6826,52.8535)"><path
             d="M 0,0 C 3.068,0 5.556,0.763 5.556,1.703 5.556,2.645 3.068,3.406 0,3.406 -3.068,3.406 -5.556,2.645 -5.556,1.703 -5.556,0.763 -3.068,0 0,0"
             style="fill:#ffffff;fill-opacity:1;fill-rule:nonzero;stroke:none"
             id="path308" /></g><g
           id="g310"
           transform="translate(74.6826,52.8535)"><path
             d="M 0,0 C 3.068,0 5.556,0.763 5.556,1.703 5.556,2.645 3.068,3.406 0,3.406 -3.068,3.406 -5.556,2.645 -5.556,1.703 -5.556,0.763 -3.068,0 0,0 Z"
             style="fill:none;stroke:#007ac2;stroke-width:0.619;stroke-linecap:butt;stroke-linejoin:miter;stroke-miterlimit:4;stroke-dasharray:none;stroke-opacity:1"
             id="path312" /></g><g
           id="g314"
           transform="translate(74.6152,56.3936)"><path
             d="m 0,0 v 20.801 c 0,0 0.269,3.298 -2.142,3.298"
             style="fill:none;stroke:#007ac2;stroke-width:0.619;stroke-linecap:butt;stroke-linejoin:miter;stroke-miterlimit:4;stroke-dasharray:none;stroke-opacity:1"
             id="path316" /></g></g></g></g></svg>
