<svg width="46" height="41" viewBox="0 0 46 41" fill="none" xmlns="http://www.w3.org/2000/svg">
<path d="M45.0993 1.26869C44.3593 0.590635 43.3075 0.364677 42.3542 0.678861L1.9075 14.0118C0.805202 14.3751 0.0577002 15.3591 0.00316497 16.5183C-0.0512805 17.6777 0.600537 18.7275 1.66375 19.1928L9.78609 22.7465L33.6998 9.47449C34.2839 9.15034 35.017 9.30181 35.4249 9.83036C35.8328 10.3591 35.7932 11.1065 35.3317 11.5891L20.4233 27.1775L17.3657 38.2243L24.7042 32.7292L33.3822 39.8304C33.8876 40.2442 34.5054 40.46 35.1353 40.46C35.4352 40.46 35.738 40.4111 36.0325 40.3112C36.9458 40.0015 37.6229 39.2561 37.8436 38.3173L45.9264 3.9517C46.1562 2.97482 45.8394 1.94674 45.0993 1.26869Z" fill="#366FEC"/>
</svg>
